<svg width="48" height="48" viewBox="0 0 48 48" fill="none" xmlns="http://www.w3.org/2000/svg">
<g clip-path="url(#clip0)">
<path d="M19.103 34.0247C19.103 28.2158 22.611 23.2367 27.6278 21.049C24.9874 18.6349 21.4794 18.2954 17.632 18.2954C9.4467 18.2954 4.65625 23.4631 4.65625 31.6483V44.5108C4.65625 46.4346 5.07117 47.9811 6.99489 47.9811H29.3629C29.7024 47.9811 30.0041 47.9434 30.3059 47.8302C23.9312 46.51 19.103 40.8143 19.103 34.0247Z" fill="#053B5F"/>
<path d="M34.7191 19.8796C33.7761 19.8796 32.8331 19.9928 31.9278 20.1437C30.9471 20.3323 30.0041 20.634 29.0988 21.0112C24.0821 23.199 20.5741 28.1781 20.5741 33.9869C20.5741 40.8143 25.4023 46.4723 31.8147 47.8302C32.1919 47.9056 32.5691 47.9811 32.9463 48.0188C33.5121 48.0942 34.1156 48.132 34.7191 48.132C42.5272 48.132 48.8641 41.795 48.8641 33.9869C48.8641 26.1789 42.5272 19.8796 34.7191 19.8796Z" fill="#92DDF6"/>
<path d="M36.2278 39.9844C33.2857 39.9844 30.947 37.3063 30.947 34.0247C30.947 30.743 33.3234 28.0649 36.2278 28.0649" stroke="#053B5F" stroke-width="2" stroke-miterlimit="10" stroke-linecap="round"/>
<path d="M29.7023 32.629H35.5866" stroke="#053B5F" stroke-width="2" stroke-miterlimit="10" stroke-linecap="round"/>
<path d="M29.6268 35.2317H35.5112" stroke="#053B5F" stroke-width="2" stroke-miterlimit="10" stroke-linecap="round"/>
<path d="M34.7191 45.9442C41.3021 45.9442 46.6386 40.6076 46.6386 34.0247C46.6386 27.4417 41.3021 22.1051 34.7191 22.1051C28.1361 22.1051 22.7996 27.4417 22.7996 34.0247C22.7996 40.6076 28.1361 45.9442 34.7191 45.9442Z" stroke="#053B5F" stroke-miterlimit="10" stroke-linecap="round"/>
<path d="M26.9866 20.5209C27.0243 20.4077 26.8734 20.2191 26.798 20.1437C26.7225 20.0305 26.6094 21.049 26.5339 20.9358C26.4585 20.8604 26.3453 20.7849 26.2699 20.7849C26.1567 20.7472 26.0436 20.6718 25.9304 20.7095C26.0058 20.7849 26.0436 20.8227 26.1567 20.8604C26.2322 20.8981 26.383 21.0113 26.4585 20.9735C26.4962 20.8227 26.2322 20.8227 26.1944 20.7095C26.3076 20.8604 26.6094 20.7849 26.7225 20.8981C26.6094 20.7849 26.4585 20.7095 26.3453 20.6718C26.1944 20.5963 26.0813 20.5209 25.9304 20.4077C25.8172 20.3323 25.6664 20.2569 25.5532 20.2191C25.4778 20.1814 25.3646 20.2191 25.2892 20.2191C25.176 20.2191 25.1383 20.1814 25.0251 20.1814C25.0628 20.3323 25.3269 20.4455 25.44 20.4832C25.5155 20.5209 25.5909 20.4832 25.6664 20.5209C25.7418 20.5209 25.7418 20.5963 25.855 20.5586C25.8172 20.4077 25.5532 20.2569 25.44 20.1814C25.2514 20.0683 25.0628 20.0305 24.8742 19.9551C24.7611 19.9174 24.6102 19.9174 24.497 19.8797C24.4216 19.8419 24.4216 19.8042 24.3462 19.7665C24.3084 19.7288 24.233 19.7665 24.1953 19.7288C24.1198 19.6911 24.0444 19.6156 23.969 19.5402C23.8935 19.4647 23.7803 19.427 23.7049 19.3516C23.8181 19.5025 24.0444 19.6156 24.1576 19.7665C24.233 19.8419 24.3084 19.9551 24.3839 20.0305C24.4593 20.106 24.5347 20.1437 24.6102 20.2191C24.4593 20.0683 24.2707 19.9551 24.1198 19.7665C24.0444 19.6911 23.9689 19.5402 23.8558 19.5025C23.8935 19.6156 24.0067 19.6911 24.0444 19.8042C23.8935 19.6533 23.7049 19.5402 23.554 19.427C23.4409 19.3139 23.2145 19.1253 23.0637 19.0875C23.0259 19.2761 23.4786 19.427 23.6295 19.3893C23.6295 19.2761 23.2523 19.163 23.1768 19.1253C23.1014 19.0875 22.7619 19.0121 22.7242 18.9744C22.7996 19.0121 22.9128 19.0498 22.9505 19.1253C22.7242 19.0875 22.5733 18.8235 22.347 18.8235C22.4601 18.9367 22.5356 19.163 22.7242 19.0498C22.5356 18.8989 22.347 18.8989 22.1584 18.8612C22.1961 18.9367 22.2338 19.0498 22.3093 19.0498C22.3847 19.0875 22.4601 19.0121 22.5356 19.1253C22.611 19.0875 22.7242 19.0875 22.8373 19.0498C22.8373 18.8989 22.6487 18.9367 22.5356 18.9367C22.4601 18.9367 22.4979 18.8612 22.4224 18.8989C22.3847 18.9367 22.347 18.9744 22.347 19.0498C22.3847 19.2007 22.5356 19.2384 22.6487 19.2761C22.7619 19.3139 22.9505 19.2761 23.0637 19.3516C22.611 19.1253 22.1584 18.9367 21.668 18.8612C21.5926 18.8612 21.404 18.8989 21.3285 18.8612C21.2908 18.8235 21.2531 18.6726 21.2154 18.6349C21.1399 18.484 20.9891 18.2954 20.8382 18.22C20.9513 18.3331 21.1399 18.4086 21.2531 18.484C21.1399 18.3709 20.1969 18.2954 20.1969 18.4463C20.4233 18.484 20.6496 18.6349 20.8759 18.7103C20.8759 18.5972 20.5741 18.5217 20.4987 18.484C20.4233 18.4463 20.3478 18.484 20.2724 18.4463C20.1592 18.4086 20.1215 18.3709 20.0083 18.4086C20.0461 18.5595 20.4233 18.6726 20.5364 18.7103C20.6496 18.7481 20.725 18.7481 20.8382 18.7858C20.9136 18.7858 21.0268 18.8989 21.0645 18.7481C20.9891 18.6726 20.8382 18.5595 20.725 18.5595C20.6496 18.5595 20.6119 18.5595 20.5364 18.5595C20.461 18.5595 20.4233 18.5217 20.3478 18.484C20.2347 18.484 20.0838 18.484 19.9329 18.484C19.8575 18.484 19.782 18.484 19.7443 18.484C19.7066 18.484 19.6689 18.5217 19.6311 18.5595C19.4048 18.5972 19.1031 18.5217 18.8767 18.484C18.8013 18.484 18.7636 18.4086 18.6881 18.4086C18.6127 18.4086 18.575 18.4086 18.4995 18.4086C18.3864 18.3709 18.2732 18.2577 18.1223 18.2954C18.1223 18.4086 18.3864 18.484 18.4995 18.5217C18.6504 18.5595 18.9145 18.484 18.7636 18.3331C18.6881 18.2577 18.6127 18.2954 18.5373 18.2577C18.4241 18.2577 18.3487 18.1823 18.2355 18.1823C18.0846 18.1823 17.8583 18.1445 17.7074 18.22C17.5943 18.2954 17.4811 18.4463 17.5565 18.5595C17.6697 18.7481 17.9715 18.5972 17.8206 18.4086C17.7451 18.2577 17.5188 18.22 17.3679 18.22C17.2925 18.22 17.1793 18.1823 17.1039 18.22C17.0285 18.22 16.953 18.2577 16.8776 18.22C16.9907 18.2954 17.4057 18.4086 17.4811 18.22C17.2925 18.0691 16.953 18.1068 16.7267 18.1068C16.6135 18.1068 16.5004 18.1068 16.3872 18.1823C16.2741 18.22 16.2741 18.2954 16.2363 18.3709C16.2741 18.4086 16.3118 18.4086 16.3872 18.4086C16.1609 18.2577 15.8969 18.2577 15.6328 18.3331C15.4442 18.3709 15.1802 18.0691 15.0293 18.22C15.1047 18.22 15.1425 18.22 15.1802 18.22L15.3688 18.5595C15.5197 18.484 15.3688 18.4463 15.2556 18.4463C15.0293 18.4463 14.803 18.1068 14.6144 18.1445C14.6144 18.1823 14.6144 18.22 14.6521 18.22C14.6144 18.1445 14.5389 18.0691 14.4635 18.0691C14.3881 18.0314 14.1995 17.9937 14.124 17.9937C13.86 18.0314 13.7091 18.2954 13.7845 18.5595C13.9731 18.5217 14.4635 18.2954 14.1617 18.0691C13.9731 17.9182 13.6337 18.0314 13.4828 18.1823C13.2565 18.4463 13.5582 18.5217 13.7845 18.4086C13.86 18.3709 14.2749 18.1445 14.124 18.0314C14.0486 17.9559 13.8223 18.0691 13.7845 18.0691C13.6714 18.1068 13.5959 18.1445 13.4828 18.22C13.3319 18.3709 13.181 18.5217 12.9924 18.5595C12.917 18.5595 12.8793 18.5595 12.8038 18.5595C12.7284 18.5595 11.1819 18.6349 11.0687 18.6349C10.9178 18.5972 13.181 18.5217 13.0301 18.6349C12.9547 18.7103 12.8793 18.7858 12.8038 18.8612C12.7661 18.8989 11.1819 18.9367 11.1819 18.9744C11.1441 19.0121 11.1441 19.0875 11.1064 19.1253C11.2196 19.2761 12.917 19.163 13.0301 19.1253C13.0301 19.2384 11.295 19.163 11.2196 19.163C11.1819 19.163 11.1441 19.2384 11.1064 19.2384C11.0687 19.2384 13.2565 19.2384 13.2187 19.2384C13.1056 19.2761 13.0301 19.3139 12.8793 19.3139C12.7661 19.3139 11.1819 19.3516 11.0687 19.3893C10.9178 19.3893 13.1056 19.3516 12.9924 19.4647C12.917 19.5025 12.8793 19.5779 12.8038 19.6533C12.6907 19.7665 11.031 19.8797 10.9178 20.0305C10.8047 19.8419 10.3897 19.9174 10.2389 19.9928C10.1257 20.0305 9.59761 20.37 9.78621 20.5209C9.55989 20.4077 9.33357 19.6533 9.18269 19.7665C9.10725 19.8419 8.99409 19.9551 8.91865 20.0683C8.88093 20.106 8.80549 20.2946 8.84321 20.3323C8.91865 20.3323 9.06953 20.2191 9.14497 20.1437C9.25813 20.0305 9.37129 19.8797 9.48445 19.7288C9.59761 19.6156 9.63533 20.6718 9.71077 20.5586C9.74849 20.4832 9.86165 20.37 9.89937 20.2946C9.74849 20.2946 9.63533 20.5209 9.55989 20.5963C9.44673 20.7095 9.33357 19.7288 9.22041 19.8419C9.14497 19.9174 8.95637 20.2946 8.99409 20.37C9.18269 20.1437 9.44673 20.9735 9.33357 20.6718C9.18269 20.7095 9.10725 19.7288 8.99409 19.8042C8.84321 19.9174 8.76777 20.0683 8.65461 20.2191C8.50373 20.37 8.39057 20.5586 8.31513 20.7095C8.35285 20.6341 8.39057 20.4455 8.27741 20.4077C8.16425 20.37 8.01337 20.5586 7.97565 20.6341C7.90021 20.7849 7.82477 20.9358 7.71161 21.0867C7.63617 21.1999 7.52301 21.2753 7.48529 21.4262C7.56073 21.3507 7.63617 21.2753 7.71161 21.1999C7.63617 21.2753 7.59845 21.3885 7.52301 21.5016C7.48529 21.5771 7.40985 21.6148 7.37213 21.6525C7.29669 21.7279 7.29669 21.8034 7.22125 21.9165C7.10809 22.1051 8.01337 22.2183 7.93793 22.4069C8.05109 22.3692 7.03264 22.1429 7.10808 22.0674C7.18352 21.992 7.37213 21.8788 7.40985 21.7657C7.22125 21.9543 8.08881 22.1429 7.86249 22.2937C7.67389 22.4446 7.52301 22.6332 7.29668 22.7841C7.22124 22.8595 7.10809 22.935 7.03264 23.0104C6.91948 23.1236 6.80632 23.199 6.73088 23.3122C6.65544 23.4253 6.46684 23.9157 6.69316 23.9911C6.88176 23.8025 6.91948 23.5385 7.03264 23.3122C7.10809 23.199 7.14581 23.0481 7.22125 22.935C7.25897 22.8595 7.29669 22.7087 7.37213 22.6332C7.18353 22.7464 7.14581 22.935 7.07037 23.0859C6.95721 23.2745 6.84404 23.4253 6.7686 23.6139C6.69316 23.7271 6.42912 24.2175 6.46684 24.3306C6.50456 24.2929 6.58 24.2175 6.58 24.1797C6.61772 24.1043 6.69316 24.0289 6.73088 23.9911C6.80632 23.9157 6.88176 23.6894 6.88176 23.5762C6.69316 23.7648 6.58 24.0666 6.46684 24.2929C6.3914 24.4438 6.35368 24.5569 6.27824 24.7078C6.24052 24.821 6.2028 24.9341 6.12736 25.0096C6.2028 24.9719 6.24052 24.7455 6.27824 24.6701C6.31596 24.5569 6.31596 24.4061 6.35368 24.3306C6.08964 24.5947 6.0142 24.9719 5.90104 25.3113C6.0142 25.3113 5.97648 25.085 6.05192 25.085C6.0142 25.2359 5.97648 25.4245 5.93876 25.5754C5.93876 25.6508 5.90104 25.6885 5.86332 25.764C5.8256 25.8771 5.90104 25.9149 5.78788 25.9903C5.78788 25.8771 5.8256 25.764 5.86332 25.6508C5.90104 25.5377 5.90104 25.4622 5.93876 25.3113C5.86332 25.4245 5.86332 25.5754 5.8256 25.6885C5.78788 25.8771 5.71244 26.0657 5.67472 26.2543C5.56156 26.5561 5.4484 26.8201 5.33524 27.1219C5.4484 26.9333 5.4484 26.6693 5.56156 26.4807C5.59928 26.3675 5.67472 26.2543 5.67472 26.1412C5.67472 26.0657 5.67472 25.9903 5.71244 25.9526C5.59928 26.2921 5.48612 26.6693 5.41068 27.0465C5.37296 27.1973 5.29752 27.3482 5.2598 27.4991C5.2598 27.5745 5.18436 27.7254 5.18436 27.8009C5.29752 27.6123 5.33524 27.3859 5.37296 27.1596C5.41068 27.0465 5.4484 26.9333 5.48612 26.8201C5.52384 26.7447 5.56156 26.707 5.56156 26.6693C5.41068 26.9333 5.37296 27.2351 5.2598 27.4991C5.18436 27.7254 5.10892 27.914 5.10892 28.1403C5.10892 28.0272 5.18436 27.8386 5.22208 27.7631C5.2598 27.65 5.29752 27.5368 5.33524 27.4237C5.22208 27.4991 5.18436 27.6123 5.14664 27.7631C5.10892 27.914 5.03348 28.0272 4.95804 28.1781C4.8826 28.4044 4.8826 28.6307 4.73172 28.8193C4.84488 28.7439 4.76944 28.6684 4.80716 28.5553C4.84488 28.4421 4.84488 28.3667 4.8826 28.2158C4.8826 28.3289 4.84488 28.4421 4.80716 28.5553C4.76944 28.7061 4.694 28.8947 4.694 29.0456C4.694 29.1965 4.65628 29.536 4.694 29.6869C4.73172 29.6491 4.76944 29.5737 4.73172 29.536C4.61856 29.5737 4.73172 29.7623 4.73172 29.8377C4.76944 29.9886 4.76944 30.1395 4.76944 30.2904C4.80716 30.4413 4.80716 30.5922 4.84488 30.743C4.8826 30.8562 4.84488 30.9694 4.92032 31.0448C4.92032 30.9316 4.8826 30.8185 4.84488 30.6676C4.84488 30.5167 4.80716 30.3281 4.76944 30.1395C4.76944 30.0641 4.73172 30.0264 4.694 29.9886C4.65628 29.9132 4.65628 29.8755 4.65628 29.8C4.65628 29.7246 4.58084 29.6114 4.54312 29.5737C4.58084 30.0641 4.46768 30.5167 4.46768 30.9694C4.46768 30.8185 4.42996 30.7053 4.39224 30.5922C4.39224 30.479 4.42996 30.3281 4.3168 30.2904C4.46768 30.3658 4.39224 30.8939 4.39224 31.0448C4.39224 31.1957 4.39224 31.3088 4.39224 31.4597C4.39224 31.5729 4.46768 31.686 4.46768 31.8369C4.46768 31.7238 4.5054 31.7238 4.54312 31.6483C4.54312 31.5729 4.54312 31.4597 4.54312 31.3843C4.54312 31.686 4.58084 32.101 4.27908 32.2896C4.20364 32.2141 4.3168 32.0632 4.35452 32.0255C4.42996 31.9501 4.54312 31.9501 4.65628 31.9124C4.5054 31.7992 4.39224 31.686 4.20364 31.5729C4.05276 31.7615 4.09048 31.9501 4.16592 32.1764C4.20364 32.2896 4.27908 32.7045 4.46768 32.5536C4.61856 32.4027 4.54312 32.0632 4.5054 31.8746C4.46768 31.686 4.42996 31.4597 4.20364 31.3466C4.16592 31.422 4.20364 31.5729 4.24136 31.6483C4.27908 31.7992 4.3168 31.9124 4.35452 32.0632C4.39224 32.1764 4.46768 32.2518 4.5054 32.3273C4.54312 32.4027 4.54312 32.5536 4.65628 32.5913C4.73172 32.365 4.61856 31.9878 4.54312 31.7615C4.46768 31.6483 4.42996 31.5352 4.39224 31.422C4.35452 31.3843 4.27908 31.2334 4.24136 31.1957C4.35452 31.3843 4.46768 31.5352 4.5054 31.7238C4.58084 31.9501 4.61856 32.1764 4.65628 32.365C4.694 32.4404 4.73172 32.5159 4.73172 32.629C4.73172 32.7045 4.73172 32.7422 4.73172 32.8176C4.76944 32.9685 4.80716 33.1194 4.76944 33.308C4.73172 33.5343 4.54312 33.7606 4.54312 33.987C4.58084 33.987 4.58084 34.0247 4.58084 34.0624C4.58084 34.1001 4.58084 34.1378 4.58084 34.1756C4.58084 34.251 4.58084 34.3264 4.58084 34.4396C4.58084 34.5528 4.61856 34.8168 4.54312 34.8922C4.58084 34.9677 4.61856 34.9677 4.61856 35.0808C4.61856 35.1563 4.58084 35.2694 4.54312 35.3449C4.5054 35.4958 4.42996 35.6466 4.42996 35.8352C4.42996 35.873 4.39224 35.9484 4.39224 35.9861C4.35452 36.0616 4.39224 36.1747 4.39224 36.2502C4.39224 36.3256 4.39224 36.401 4.39224 36.5142C4.39224 36.6274 4.42996 36.6651 4.42996 36.7405C4.5054 37.0423 4.61856 37.6835 4.61856 38.023C4.61856 38.0984 4.58084 38.2116 4.61856 38.3248C4.61856 38.4002 4.694 38.4379 4.694 38.5134C4.694 38.5888 4.65628 38.702 4.694 38.8151C4.694 38.8906 4.76944 38.9283 4.76944 39.0037C4.694 38.9283 4.61856 38.7397 4.58084 38.6265C4.5054 38.4002 4.46768 38.1739 4.39224 37.9476C4.35452 37.8344 4.3168 37.759 4.27908 37.6458C4.24136 37.5326 4.24136 37.4195 4.20364 37.3063C4.16592 37.2309 4.05276 36.6274 4.09048 36.5519C4.20364 36.5519 4.3168 36.7028 4.35452 36.7782C4.39224 36.8537 4.39224 37.2686 4.42996 37.344C4.46768 37.3818 4.5054 37.4195 4.5054 37.4949C4.46768 37.4572 4.35452 36.7028 4.35452 36.6274C4.3168 36.5519 4.27908 36.2879 4.16592 36.2502C4.09048 36.5142 4.20364 37.1932 4.16592 37.4572C4.1282 37.759 4.05276 38.0984 4.09048 38.4002C4.1282 38.5134 4.16592 38.5511 4.16592 38.6642C4.16592 38.7774 4.16592 38.8906 4.16592 39.0037C4.16592 39.1546 4.20364 39.1923 4.24136 39.2678C4.27908 39.3809 4.20364 39.5318 4.24136 39.645C4.42996 39.5318 4.46768 39.1923 4.46768 39.0037C4.46768 38.8528 4.46768 38.5134 4.27908 38.4756C4.09048 38.702 4.1282 39.0414 4.1282 39.3055C4.1282 39.4941 4.1282 40.173 4.35452 40.173C4.39224 40.0976 4.35452 39.9844 4.39224 39.909C4.42996 39.7581 4.39224 39.7581 4.39224 39.6072C4.35452 39.4941 4.39224 39.4186 4.39224 39.3055C4.39224 39.1923 4.3168 39.1169 4.3168 39.0037C4.16592 39.2678 4.27908 39.6072 4.3168 39.909C4.3168 40.0976 4.3168 40.2485 4.3168 40.4371C4.3168 40.5502 4.35452 40.6634 4.39224 40.8143C4.39224 40.852 4.42996 40.8897 4.42996 40.9652C4.42996 41.0406 4.42996 41.0783 4.42996 41.1538C4.42996 41.2669 4.42996 41.4178 4.42996 41.531C4.42996 41.7573 4.39224 42.059 4.5054 42.2477C4.5054 42.1345 4.58084 42.0213 4.58084 41.9082C4.58084 41.7196 4.61856 41.5687 4.65628 41.3801C4.694 41.2292 4.61856 41.0783 4.65628 40.8897C4.694 40.7388 4.73172 40.6257 4.73172 40.4748C4.73172 40.8143 4.76944 41.2292 4.73172 41.5687C4.694 41.7573 4.65628 41.9836 4.61856 42.1722C4.61856 42.2477 4.61856 42.3231 4.61856 42.3985C4.61856 42.474 4.54312 42.5494 4.54312 42.6249C4.54312 42.5494 4.5054 42.474 4.46768 42.3985C4.46768 42.3231 4.46768 42.2099 4.46768 42.1345C4.46768 41.9459 4.46768 41.795 4.46768 41.6064C4.5054 41.7573 4.42996 41.9082 4.39224 42.059C4.35452 42.2476 4.27908 42.4363 4.27908 42.6249C4.24136 42.8889 4.16592 43.2284 4.24136 43.4924C4.39224 43.4547 4.42996 43.1907 4.46768 43.0775C4.5054 42.9266 4.58084 42.7757 4.54312 42.6249C4.39224 42.7003 4.39224 42.8889 4.35452 43.0398C4.3168 43.2284 4.24136 43.4547 4.24136 43.681C4.24136 43.8319 4.24136 44.0205 4.24136 44.2091C4.24136 44.2845 4.24136 44.36 4.24136 44.4354C4.24136 44.4731 4.3168 44.5109 4.3168 44.5863C4.42996 44.5109 4.42996 44.4354 4.42996 44.3223C4.42996 44.1714 4.5054 44.0959 4.5054 43.9451C4.5054 43.8319 4.42996 43.7187 4.42996 43.6056C4.42996 43.4924 4.42996 43.417 4.42996 43.3038C4.42996 43.6056 4.42996 43.9073 4.5054 44.2091C4.54312 44.36 4.5054 44.4731 4.54312 44.624C4.58084 44.7372 4.5054 44.8503 4.61856 44.9258C4.73172 44.6995 4.694 44.4354 4.61856 44.2091C4.58084 43.9828 4.58084 43.7187 4.61856 43.4924C4.65628 43.6433 4.54312 43.8319 4.54312 43.9828C4.54312 44.2091 4.54312 44.4354 4.54312 44.6617C4.54312 44.8503 4.61856 45.0012 4.61856 45.1898C4.61856 45.303 4.58084 45.4539 4.61856 45.567C4.73172 45.4916 4.61856 45.3407 4.61856 45.2275C4.61856 45.1144 4.58084 44.9635 4.54312 44.8503C4.42996 44.8881 4.54312 45.1144 4.54312 45.2275C4.54312 45.3784 4.5054 45.5293 4.54312 45.6425C4.58084 45.7556 4.76944 46.2837 4.95804 46.1328C4.99576 46.2837 5.03348 46.4723 5.18436 46.6232C5.29752 46.7363 5.4484 46.8495 5.56156 46.9627C5.41068 46.7741 5.18436 46.6232 4.99576 46.4723C4.76944 46.2837 4.694 45.9819 4.61856 45.7179C4.58084 45.567 4.54312 45.4916 4.58084 45.3407C4.58084 45.2653 4.61856 45.0767 4.694 45.0389C4.95804 44.9258 4.92032 45.4916 4.92032 45.6425C4.92032 45.7933 4.99576 45.9442 4.99576 46.0951C4.99576 46.246 5.03348 46.3214 5.0712 46.4723C5.0712 46.5477 5.0712 46.5855 5.0712 46.6609C5.0712 46.7363 5.10892 46.7741 5.14664 46.8495C5.18436 46.9627 5.18436 47.0381 5.2598 47.1513C5.37296 47.4153 5.59928 47.453 5.8256 47.4907C5.93876 47.5285 6.05192 47.5662 6.12736 47.6039C6.2028 47.6416 6.3914 47.6793 6.42912 47.7548C6.35368 47.7548 6.2028 47.6416 6.12736 47.5662C5.93876 47.453 5.78788 47.3399 5.637 47.189C5.48612 47.0758 5.33524 46.9249 5.18436 46.8118C5.14664 46.7741 5.10892 46.7363 5.0712 46.6986C5.03348 46.6609 4.95804 46.6609 4.92032 46.5855C5.0712 46.8872 5.41068 47.0381 5.637 47.3021C5.8256 47.5285 6.0142 47.6793 6.24052 47.8302C6.35368 47.9057 6.50456 47.9057 6.65544 47.9434C6.73088 47.9811 6.84404 48.0188 6.91948 48.0943C7.1458 48.2074 7.44757 48.132 7.67389 48.0943C7.67389 48.1697 7.37213 48.2074 7.25897 48.2074C7.18353 48.2074 7.10809 48.2074 7.07037 48.2074C6.99493 48.2074 6.99493 48.132 6.88176 48.1697C6.99493 48.2829 7.10809 48.2074 7.25897 48.2074C7.33441 48.2074 7.37213 48.2451 7.40985 48.2829C7.48529 48.2829 7.52301 48.2829 7.59845 48.2829C7.82477 48.3206 6.9572 48.4337 7.18353 48.3206C7.14581 48.1697 6.95721 47.9057 6.88176 47.7548C6.61772 47.3399 7.56073 46.8872 7.37213 46.4346C7.18353 45.9819 6.9572 45.4916 6.80632 45.0012C6.73088 44.7749 6.69316 44.5486 6.65544 44.2845C6.65544 44.1714 6.61772 44.0959 6.58 43.9828C6.54228 43.7942 6.54228 43.6056 6.50456 43.417C6.42912 42.9266 6.3914 42.474 6.3914 41.9836C6.3914 41.7196 6.35368 41.4932 6.31596 41.2292C6.27824 40.9652 6.31596 40.6634 6.31596 40.3994C6.31596 39.9844 6.3914 39.5695 6.3914 39.1169C6.3914 38.9283 6.42912 38.7397 6.46684 38.5511C6.50456 38.287 6.46684 38.023 6.46684 37.7967C6.46684 36.8914 6.73088 35.6466 6.91948 34.7791C7.10808 33.987 7.40985 33.1571 7.48529 32.3273C7.52301 31.9501 7.59845 31.5352 7.67389 31.1202C7.71161 30.9316 7.78705 30.743 7.78705 30.5544C7.82477 30.4413 7.78705 30.3281 7.82477 30.2149C7.82477 30.1018 7.90021 29.9886 7.93793 29.9132C7.97565 29.7246 6.84404 29.5737 6.88176 29.3851C6.95721 29.1965 6.99493 29.0079 7.07037 28.8193C7.22125 28.3289 7.40985 27.8386 7.63617 27.3859C7.86249 26.9333 8.01337 26.4429 8.23969 25.9903C8.42829 25.5377 8.57917 25.085 8.84321 24.6701C9.06953 24.2929 9.25813 23.9157 9.52217 23.5762C9.63533 23.4253 9.78621 23.2745 9.89937 23.0859C10.0125 22.935 10.1257 22.7841 10.2766 22.6709C10.6161 22.4069 12.5398 22.1051 12.9924 21.9165C13.2565 21.8034 12.8038 21.6902 13.0679 21.5771C13.2565 21.5016 12.6152 21.3885 12.8038 21.313C13.0301 21.2376 10.9178 21.1244 11.1064 21.0113C11.2573 20.9358 12.917 20.8604 13.0679 20.7472C13.2187 20.6341 13.3696 20.5586 13.5205 20.4832C13.7091 20.4077 13.86 20.2946 14.0863 20.2191C14.3126 20.1437 14.5012 20.0305 14.7275 19.9174C15.067 19.8042 15.4065 21.2376 15.7083 21.0867C16.1232 20.8981 16.5381 20.7472 16.9907 20.6341C17.632 20.4832 18.2355 20.4455 18.8767 20.4455C19.1408 20.4455 19.4048 20.4077 19.6311 20.4455C20.0083 20.5209 20.3478 20.5963 20.725 20.6341C20.9513 20.6341 21.1777 20.6341 21.404 20.6341C21.5926 20.6341 21.7435 20.7095 21.9321 20.7095C22.0829 20.7095 22.2338 20.7095 22.3847 20.7095C22.5356 20.7095 22.6865 20.7849 22.8373 20.8227C23.1768 20.8981 23.554 20.9358 23.8935 21.0113C24.1198 21.049 24.3461 21.0867 24.5725 21.1999C24.7611 21.2753 24.912 20.2569 25.1383 20.3323C25.3646 20.37 25.5532 20.4455 25.7795 20.5586C26.0058 20.6718 26.2322 20.7095 26.4585 20.8227C26.5716 20.8604 26.6471 20.8981 26.7602 20.9358C26.8357 20.9735 26.9488 20.9735 26.9866 21.049C27.0997 20.9358 27.062 20.8981 26.9866 20.5209Z" fill="#053B5F"/>
<path d="M7.18351 47.7925C7.40983 47.9057 7.71159 48.132 7.97563 48.1697C8.05107 48.1697 8.12651 48.1697 8.20195 48.1697C8.27739 48.1697 8.35283 48.132 8.39055 48.132C8.50371 48.0943 8.80547 48.1697 8.80547 48.0188C8.65459 47.9434 8.35283 47.7548 8.20195 47.8302C8.20195 47.9811 8.50371 48.0188 8.61687 48.0188C8.69231 48.0188 8.80547 48.0188 8.91863 48.0188C9.03179 48.0188 9.10723 47.9811 9.22039 47.9434C9.40899 47.9057 9.55987 47.7925 9.74847 47.8302C9.93707 47.8302 10.1257 47.7925 10.3143 47.9057C10.4652 47.9811 10.616 48.0188 10.7669 48.0565C10.9178 48.0943 11.031 48.1697 11.2196 48.1697C11.295 48.1697 12.8792 48.132 12.9547 48.0943C13.0301 48.0565 13.1433 48.132 13.2564 48.0943C13.3319 48.0565 11.295 47.9811 11.3327 47.9057C11.2573 47.9434 13.4073 47.9811 13.3319 48.0188C13.2564 48.0565 13.1433 48.132 13.0678 48.132C12.8792 48.1697 11.1441 48.1697 10.9178 48.2451C10.6915 48.3206 10.5029 48.2829 10.2766 48.2829C10.1634 48.2829 10.088 48.3206 9.97479 48.3583C9.86163 48.396 9.78619 48.3206 9.67303 48.3583C9.67303 48.4337 9.78619 48.396 9.86163 48.396C9.97479 48.396 10.0125 48.4337 10.1257 48.4337C10.2766 48.4715 10.5406 48.4715 10.6915 48.4337C10.8801 48.396 11.0687 48.3583 11.2573 48.3206C11.4082 48.2829 13.1056 48.2829 13.2564 48.2451C13.5582 48.1697 10.9178 48.2074 11.2573 48.2074C11.5968 48.2074 12.6906 48.1697 12.9924 48.1697C12.8792 48.0943 13.5205 48.1697 13.4073 48.132C13.2564 48.0943 13.1056 48.0565 12.9547 48.0188C12.8415 47.9811 11.2573 47.9057 11.1441 47.8302C11.0687 47.7925 13.181 47.7548 13.1056 47.6793C13.2564 47.7548 11.1441 47.8679 11.2573 47.9434C11.3704 48.0188 13.0301 48.132 13.1433 48.1697C13.2942 48.2074 11.2196 48.2451 11.3704 48.1697C11.5213 48.132 13.1433 48.0943 13.2564 48.0188C13.4828 48.3583 13.6714 48.5092 14.0863 48.5092C14.2372 48.5092 14.388 48.4337 14.5389 48.3583C14.6521 48.3206 14.803 48.2451 14.8784 48.132C14.9538 48.2074 15.2556 48.1697 15.3688 48.1697C15.5574 48.132 15.7082 48.0565 15.8968 48.0188C15.8591 47.8679 15.2556 48.0188 15.1424 48.0188C14.9161 48.0565 14.6144 47.9434 14.388 48.0188C14.388 48.0943 14.5389 48.1697 14.6144 48.1697C14.6898 48.1697 14.7652 48.1697 14.8407 48.2074C14.9161 48.2074 14.9538 48.2829 15.0293 48.2829C15.1047 48.2829 15.1424 48.2451 15.2179 48.2451C15.2933 48.2074 15.3688 48.2451 15.4442 48.2074C15.5574 48.1697 15.6328 48.0943 15.746 48.0943C15.746 47.9434 15.3688 47.9057 15.2556 47.9057C15.331 47.9057 15.4442 47.9434 15.5196 47.9811C15.6705 48.0188 15.746 48.0565 15.8968 48.0565C16.1609 48.0565 16.4626 48.132 16.7267 48.0565C16.953 48.0188 17.1793 47.9057 17.4056 47.8679C17.5188 47.8679 17.5565 47.9057 17.6697 47.9434C17.7828 47.9811 17.896 47.9434 18.0092 47.9434C18.2355 47.9434 18.3864 47.9434 18.575 47.8302C18.7258 47.7548 18.839 47.6039 18.9899 47.5662C19.1785 47.5285 19.4425 47.6793 19.5934 47.7548C19.7443 47.8302 19.8952 47.8679 20.0083 48.0188C19.8952 48.0943 19.7066 48.1697 19.5557 48.2074C19.4425 48.2451 19.3294 48.2829 19.2162 48.3206C19.0653 48.3583 18.9144 48.3583 18.7258 48.396C18.4618 48.4337 18.1978 48.4337 17.9714 48.3583C17.7828 48.3206 17.6697 48.132 17.4811 48.0943C17.5942 47.9811 17.6697 48.0565 17.7828 48.0943C17.9337 48.132 18.0846 48.0943 18.2355 48.0943C18.5372 48.0943 18.9144 48.132 19.2162 48.0943C19.2916 48.0943 19.3294 48.0188 19.4048 48.0188C19.4802 48.0188 19.518 48.0565 19.5934 48.0565C19.7066 48.0943 19.782 48.0565 19.8952 48.0565C20.1215 48.0565 20.3478 48.0565 20.5741 48.0943C20.6873 48.132 20.7627 48.132 20.8759 48.132C20.9136 48.132 20.989 48.132 21.0268 48.132L21.1022 48.0943C21.2154 48.0943 21.2908 48.132 21.404 48.132C21.5171 48.132 21.668 48.132 21.7812 48.132C21.9698 48.132 22.1206 48.0943 22.2715 48.0188C22.4978 47.9057 22.6865 47.9434 22.9128 47.9811C23.1014 48.0565 23.3277 48.132 23.5163 48.0943C23.5917 48.0943 23.6672 48.0565 23.7426 48.0188C23.7803 48.0188 23.8558 47.9811 23.9312 47.9434C23.9689 47.9434 24.0444 47.9057 24.0821 47.9057C24.2707 47.8302 24.4216 47.7548 24.6479 47.7925C24.6856 47.7925 24.6856 47.8302 24.7233 47.8302C24.7611 47.8302 24.8365 47.8302 24.8742 47.8302C24.9874 47.8302 25.1005 47.9057 25.2137 47.9434C25.4023 47.9811 25.6286 47.9434 25.8549 47.9434C25.9681 47.9434 26.0435 47.9434 26.1567 47.9434C26.2321 47.9057 26.3076 47.8679 26.4207 47.9057C26.6093 47.9434 26.8357 48.0565 27.062 48.0188C27.1751 47.9811 27.2506 47.9434 27.3637 47.9434C27.4769 47.9434 27.5901 47.9434 27.6655 47.9434C27.7787 47.9434 27.9295 47.9811 28.0427 47.9434C28.0804 47.9434 28.1181 47.8679 28.1559 47.8679C28.2313 47.8679 28.2313 47.9057 28.3067 47.9057C28.3445 47.9057 28.4199 47.8679 28.4199 47.8679C28.4953 47.8679 28.5331 47.8679 28.6085 47.8679C28.6839 47.8679 28.8348 47.7548 28.948 47.7548C29.1743 47.7171 29.4383 47.7548 29.6269 47.7548C29.7024 47.7548 29.7401 47.7548 29.8155 47.7548C29.891 47.7548 29.891 47.7925 29.9664 47.7925C30.0796 47.8302 30.1927 47.7925 30.3059 47.8302C30.2682 47.9811 29.7778 47.8302 29.6647 47.8302C29.5138 47.7925 29.4006 47.7171 29.2875 47.7171C29.212 47.7171 29.1743 47.7171 29.0989 47.7171C28.948 47.7171 28.8348 47.6416 28.6839 47.6416C28.4576 47.6416 28.269 47.6039 28.0427 47.5662C27.8164 47.5662 27.5523 47.5285 27.3637 47.4907C26.8734 47.3776 26.3076 47.3021 25.7795 47.3021C25.2514 47.3021 24.7233 47.3021 24.1953 47.3021C23.7426 47.3021 23.29 47.2267 22.7996 47.1135C22.3847 47.0381 21.9698 46.9627 21.5548 46.9249C21.2908 46.8872 21.0268 46.8495 20.8004 46.8118C20.5364 46.7741 20.2724 46.8118 20.0083 46.7363C19.7066 46.6986 19.4425 46.7741 19.1408 46.7741C18.8767 46.7741 18.575 46.7741 18.3109 46.7741C18.0469 46.7741 17.8206 46.8495 17.5942 46.8495C17.2548 46.8495 16.8776 46.9627 16.5381 46.9627C15.4065 47.0381 14.2749 47.2644 13.1433 47.2644C12.8415 47.2644 13.3319 47.2644 13.0301 47.3021C12.8038 47.3399 13.2942 47.3776 13.1056 47.3776C12.7284 47.4153 11.5968 47.453 11.2196 47.453C11.1064 47.453 10.9932 47.453 10.8801 47.453C10.7669 47.453 10.6915 47.4153 10.616 47.3776C10.3897 47.3399 10.088 47.4153 9.86163 47.453C9.71075 47.4907 9.63531 47.5285 9.48443 47.5285C9.37127 47.5285 9.22039 47.5285 9.10723 47.5285C8.84319 47.5285 8.57915 47.5285 8.27739 47.5285C8.12651 47.5285 8.01335 47.5285 7.86247 47.5285C7.71159 47.5285 7.67387 47.6039 7.52299 47.6039C7.48527 47.6039 7.40983 47.6039 7.37211 47.6039C7.29667 47.6039 7.29667 47.6416 7.22123 47.6793C7.14579 47.6793 8.23967 47.6416 8.16423 47.6793C7.90019 47.8302 6.76859 47.9057 7.18351 47.7925Z" fill="#053B5F"/>
<path d="M32.9086 19.9551V19.9174C32.8332 19.9174 32.7955 19.8419 32.72 19.8419C32.6446 19.8419 32.5691 19.9174 32.4937 19.9174C32.3428 19.9551 32.2297 19.9174 32.1165 20.0682C32.2297 20.1814 32.9086 19.9928 32.8332 19.8419C32.9086 19.9174 33.2481 19.8796 33.3235 19.8796C33.399 19.8419 33.4744 19.8419 33.5876 19.8419C33.663 19.8042 33.7007 19.7665 33.8139 19.7665C33.7007 19.7665 33.4744 19.8419 33.4744 19.9551C33.7007 19.9928 33.9271 20.0682 34.1534 20.0305C34.2665 19.9928 34.342 19.9551 34.4551 19.9551C34.5683 19.9551 34.6815 19.9551 34.7192 19.8419C34.606 19.7665 34.342 19.7288 34.1911 19.7665C34.2288 19.9174 34.4929 19.9928 34.606 20.0305C34.7946 20.106 35.0209 20.0682 35.2095 20.106C35.3981 20.1437 35.5867 20.106 35.7376 20.1814C35.8885 20.2191 36.1148 20.2568 36.2657 20.2191C36.0771 20.0682 35.6622 19.7665 35.4359 19.8796C35.6999 20.106 36.1148 19.9551 36.4543 19.9928C36.5297 19.9928 36.6052 20.0305 36.7183 20.0682C36.7938 20.0682 36.9069 20.0682 37.0201 20.0682C37.0955 20.0682 37.171 20.0682 37.2464 20.0682C37.3596 20.106 37.3973 20.1437 37.5105 20.106C37.5105 20.0682 37.4727 20.0305 37.4727 20.0305C37.5482 20.0305 37.5859 20.106 37.6613 20.1437C37.7368 20.1814 37.8499 20.2191 37.9631 20.2568C38.0385 20.2946 38.114 20.2568 38.2271 20.2946C38.3403 20.3323 38.378 20.37 38.4912 20.37C38.4535 20.2946 38.3403 20.2568 38.2649 20.3323C38.4157 20.4454 38.4535 20.4077 38.6043 20.4454C38.7552 20.4832 38.8684 20.5209 39.057 20.4832C39.057 20.4077 39.0193 20.37 38.9438 20.37C39.0193 20.4832 39.2079 20.5209 39.321 20.5586C39.4719 20.634 39.6228 20.6718 39.7737 20.7472C39.9245 20.8226 40.0377 20.8604 40.1886 20.8981C40.3395 20.9358 40.4903 21.049 40.6412 21.0112C40.7167 20.9735 40.7544 20.9358 40.8298 21.0112C40.8675 21.049 40.9053 21.1244 40.943 21.1621C41.0939 21.313 41.207 21.3884 41.3956 21.4639C41.5465 21.5393 41.6974 21.577 41.8483 21.6148C41.9991 21.6525 42.15 21.8788 42.3009 21.8411C42.1877 21.7656 42.0746 21.6902 41.9992 21.6148C41.9992 21.7656 42.3386 21.992 42.4518 22.0297C42.5649 22.0674 42.6781 22.1051 42.829 22.1051C42.9422 22.1051 43.093 22.1806 43.1685 22.1428C43.1308 22.0674 43.0176 22.0674 42.9422 22.1051C42.9044 22.1051 42.7913 22.1428 42.7536 22.1806C42.6027 22.256 42.6027 22.3692 42.7158 22.4823C42.9421 22.7086 43.2816 22.7464 43.5834 22.8595C43.8097 22.7086 43.4702 22.52 43.3194 22.4446C43.2439 22.4069 43.1307 22.3314 43.093 22.4069C43.0553 22.4823 43.2062 22.7464 43.2439 22.7841C43.4325 23.0104 43.6211 23.3122 43.9229 23.463C44.036 23.5385 44.1869 23.6139 44.3001 23.6894C44.3755 23.7271 44.5264 23.8402 44.6018 23.8402C44.5264 23.8402 44.4887 23.878 44.451 23.878C44.3755 24.0288 44.7527 24.2929 44.8659 24.3306C45.0168 24.406 45.3562 24.4815 45.4317 24.6324C45.4694 24.7078 45.4694 24.7832 45.5071 24.8587C45.5448 24.9718 45.5826 25.085 45.658 25.1982C45.6957 25.2736 45.7334 25.3491 45.7712 25.3868C45.8089 25.4622 45.922 25.5376 45.922 25.6131C45.7712 25.6885 45.7334 25.4999 45.5826 25.4999C45.8089 25.6885 46.0729 25.8394 46.337 25.9903C46.601 26.1412 46.7142 26.3298 46.865 26.5561C46.9782 26.7447 47.2422 26.971 47.2045 27.1973C47.1668 27.3105 47.0914 27.3859 47.2045 27.4991C47.28 27.5745 47.5063 27.6123 47.6194 27.5745C47.5817 27.5368 47.4686 27.3859 47.3931 27.4614C47.3554 27.4991 47.4308 27.6123 47.4308 27.6877C47.4686 27.8009 47.4308 27.8386 47.5063 27.9517C47.544 28.0272 47.6194 28.1026 47.6572 28.1781C47.7703 28.3667 47.8835 28.4798 48.0344 28.6307C48.1475 28.7439 48.223 28.8947 48.3361 29.0079C48.2984 29.0833 48.2984 29.1211 48.2984 29.1965C48.2984 29.3097 48.3361 29.3474 48.3738 29.4228C48.4116 29.5737 48.4116 29.6869 48.487 29.8C48.3738 29.6869 48.2984 29.4983 48.1475 29.4605C48.0721 29.6869 48.2607 30.0641 48.3738 30.2527C48.4116 30.3281 48.751 30.7053 48.7888 30.5921C48.8642 30.8185 48.9019 31.0825 49.0151 31.3088C49.0905 31.5351 49.2037 31.7615 49.2414 31.9878C49.2791 32.0632 49.3168 32.6667 49.0905 32.5159C49.0528 32.4781 48.9396 32.2518 48.9396 32.2141C48.9396 32.1387 49.0528 31.9123 49.1282 31.9123C49.1282 31.9501 49.1282 31.9501 49.0905 31.9501C49.1282 31.9878 49.1282 32.0632 49.1282 32.1387C49.1282 32.2518 49.166 32.2895 49.166 32.4027C49.2037 32.4781 49.166 32.5536 49.166 32.6667C49.166 32.7799 49.2037 32.8176 49.2414 32.9308C49.2414 33.0062 49.2414 33.0817 49.2414 33.1571C49.2414 33.1948 49.3168 33.308 49.3168 33.3457C49.3546 33.4211 49.3923 33.4211 49.3923 33.5343C49.3923 33.6097 49.3923 33.6852 49.3923 33.7606C49.3923 34.0624 49.43 34.4019 49.3168 34.6659C49.2037 34.9677 49.0528 35.2694 49.0528 35.5712C48.9774 35.4957 49.0151 35.458 49.0151 35.3826C49.0151 35.3071 48.9774 35.194 48.9774 35.1185C48.9774 34.8545 48.9774 34.6282 48.9019 34.3641C48.8642 34.1755 48.7888 34.0624 48.7888 33.8738C48.7888 33.7983 48.7888 33.6852 48.7888 33.6097C48.7888 33.572 48.8265 33.5343 48.8265 33.4966C48.8265 33.4589 48.8265 33.4211 48.8265 33.3457C48.9774 33.4966 48.9774 33.8738 48.9396 34.1001C48.9396 34.1755 48.8642 34.2133 48.8642 34.2887C48.8642 34.3641 48.8642 34.4019 48.8642 34.4773C48.8265 34.6282 48.8265 34.7413 48.8265 34.8922C48.9396 34.7791 49.3168 34.0247 49.0905 33.9869C49.0151 34.2887 48.9396 34.5527 48.9019 34.8168C48.8265 35.0808 48.8642 35.3826 48.7888 35.6843C48.7888 35.7221 48.7133 35.7598 48.7133 35.7975C48.7133 35.8729 48.7133 35.9484 48.6756 36.0238C48.6379 36.1747 48.6379 36.3256 48.6379 36.4765C48.6379 36.6273 48.6379 36.7405 48.6379 36.8914C48.6379 37.0423 48.6002 37.1931 48.5624 37.344C48.5624 37.4195 48.5624 37.4572 48.5624 37.5326C48.5624 37.6081 48.5247 37.6081 48.5247 37.6835C48.5247 37.7589 48.5247 37.8344 48.487 37.8721C48.487 37.9475 48.4493 37.9475 48.4116 38.023C48.4116 38.1362 48.3738 38.2493 48.3361 38.3625C48.2984 38.5133 48.223 38.5888 48.223 38.7397C48.223 38.8151 48.223 38.8906 48.223 38.966C48.223 39.0414 48.1475 39.0792 48.1475 39.1546C48.1475 39.23 48.1475 39.2678 48.1475 39.3432C48.1098 39.4186 48.1098 39.4564 48.1098 39.5318C48.1098 39.7581 47.9212 39.9467 47.808 40.1353C47.7703 40.2108 47.6572 40.4371 47.5817 40.3994C47.4308 40.3616 47.544 40.1353 47.5817 40.0599C47.6194 39.8713 47.6572 39.6827 47.7326 39.5318C47.7326 39.4564 47.808 39.3809 47.8458 39.3432C47.8458 39.2678 47.8458 39.1923 47.8835 39.1546C47.808 39.2678 47.8458 39.4186 47.7703 39.5318C47.6949 39.6827 47.6572 39.7958 47.5817 39.909C47.5063 40.0599 47.4686 40.2108 47.4308 40.3239C47.3931 40.4371 47.28 40.5125 47.3177 40.6257C47.3931 40.588 47.4686 40.5125 47.544 40.5125C47.6194 40.7011 47.4686 40.9652 47.3931 41.116C47.3177 41.3046 47.1668 41.4932 47.0536 41.6818C46.8273 41.9836 46.5633 42.2476 46.3747 42.5494C46.2615 42.738 46.1106 42.8512 45.8843 42.9643C45.7334 43.0398 45.5448 43.0775 45.4317 43.2284C45.3185 43.3792 45.2431 43.5678 45.1299 43.7187C45.0168 43.8319 44.8282 43.9073 44.7904 44.0582C44.8659 43.9828 44.9036 43.8319 44.979 43.7564C45.0545 43.6433 45.1676 43.5301 45.2431 43.4547C45.3562 43.3415 45.4317 43.2284 45.5071 43.1152C45.5826 43.0398 45.6203 42.8889 45.7334 42.8512C45.8843 42.9643 45.6957 43.3038 45.6203 43.417C45.4694 43.6056 45.3562 43.7564 45.2054 43.945C45.0922 44.0582 44.9413 44.2091 44.7904 44.3222C44.715 44.3977 44.6018 44.4354 44.5264 44.4731C44.4132 44.5486 44.3755 44.6617 44.2624 44.7372C44.1115 44.888 43.9606 45.0389 43.8097 45.2275C43.6966 45.3784 43.6211 45.567 43.4702 45.7179C43.3571 45.831 43.2439 45.9819 43.093 46.0196C42.9044 46.0951 42.829 46.0951 42.6781 46.246C42.5272 46.3591 42.4141 46.4723 42.2632 46.5854C42.1123 46.6986 41.9614 46.774 41.8105 46.8118C41.7728 46.8118 41.7728 46.8495 41.6974 46.8872C41.6597 46.8872 41.6219 46.8872 41.5465 46.8872C41.5088 46.8872 41.4711 46.9249 41.4333 46.9626C41.3956 46.9626 41.3579 46.9626 41.3202 46.9626C41.1316 47.0381 40.943 47.189 40.7544 47.2644C40.6789 47.3021 40.6035 47.3398 40.5658 47.3398C40.4903 47.3398 40.4149 47.4153 40.3395 47.4153C40.264 47.4153 40.1509 47.4153 40.0754 47.453C40.0377 47.453 40 47.4907 39.9623 47.5284C39.9245 47.5284 39.8491 47.5662 39.8114 47.5662C39.6228 47.6416 39.5096 47.7548 39.321 47.7548C39.1324 47.7548 38.9815 47.7548 38.7929 47.8679C38.6421 47.9811 38.5666 48.132 38.4157 48.2074C38.3403 48.2451 38.2271 48.3206 38.1517 48.3206C38.114 48.3206 38.0385 48.3206 37.9631 48.3206C37.9254 48.3206 37.8877 48.3583 37.8122 48.3583C37.6991 48.3583 37.3219 48.2451 37.4727 48.0942C37.5482 48.0188 37.6991 48.0565 37.7745 48.0188C37.8122 48.0188 37.9631 47.9434 38.0008 47.9056C37.8877 48.0188 37.8499 48.0188 37.6991 48.0188C37.6236 48.0188 37.4727 48.0942 37.435 47.9434C37.3973 47.7925 37.9254 47.4907 38.0008 47.6416C38.0763 47.7925 37.6613 48.132 37.5482 48.1697C37.3219 48.2828 37.0578 48.3583 36.8315 48.2074C36.5297 47.9811 37.0955 47.9056 37.171 47.9811C37.3219 48.1697 36.6806 48.2451 36.6052 48.2828C36.492 48.3206 36.4166 48.2828 36.3034 48.2451C36.228 48.2451 36.1903 48.2451 36.1148 48.2451C36.0394 48.2451 36.0394 48.2074 35.9639 48.2074C35.6999 48.132 35.4736 48.3206 35.285 48.4337C35.0964 48.5469 34.8701 48.6223 34.6815 48.5846C34.5683 48.5846 34.4929 48.5469 34.4174 48.4714C34.3043 48.396 34.2288 48.3206 34.1157 48.2074C34.0779 48.1697 33.9648 48.0942 33.9271 48.0942C33.8516 48.0942 33.7007 48.1697 33.6253 48.2074C33.399 48.3206 33.1727 48.396 32.9463 48.2828C32.7577 48.2074 32.6069 48.0565 32.3805 48.0942C32.3051 48.132 32.1542 48.1697 32.0788 48.2074C31.9656 48.2451 31.8147 48.2828 31.7016 48.3206C31.6261 48.3206 31.4753 48.3206 31.3998 48.3206C31.2489 48.2828 31.1735 48.132 31.0226 48.0565C30.9472 48.0188 30.834 47.9811 30.7586 47.9434C30.6077 47.9056 30.4945 47.9811 30.3814 47.8679C30.1928 47.7548 30.0042 47.6039 29.8156 47.5662C29.7024 47.5284 29.5893 47.4907 29.4384 47.4907C29.2875 47.453 29.1366 47.4153 28.9857 47.3776C28.948 47.3776 28.9103 47.3776 28.8726 47.3776C28.7594 47.3776 28.7217 47.3398 28.6085 47.3021C28.4576 47.2644 28.4199 47.2644 28.3068 47.1512C28.1936 47.0381 28.0804 46.9626 27.9673 46.8495C27.8918 46.774 27.8541 46.6986 27.8164 46.6232C27.9296 46.6609 28.0427 46.774 28.1559 46.8495C28.1936 46.8872 28.269 46.9249 28.3068 46.9249C28.3822 46.9249 28.4576 46.8872 28.4954 46.9626C28.5331 46.8872 28.6462 46.9249 28.7217 46.9249C28.7971 46.9249 28.9103 46.8495 29.0234 46.8118C29.2498 46.774 29.5138 46.8118 29.7024 46.8495C30.0796 46.9626 30.4568 47.1135 30.8717 47.1135C30.9849 47.1135 31.0603 47.0758 31.1735 47.0758C31.2112 47.0758 31.2489 47.0758 31.2867 47.0758C31.3244 47.0758 31.3998 47.0381 31.4375 47.0381C31.5507 47.0004 31.6261 47.0381 31.7393 47.0004C31.8525 46.9626 32.0033 46.9626 32.1165 46.9249C32.3051 46.8872 32.5314 46.774 32.7577 46.8118C32.9841 46.8495 33.2104 46.9249 33.4367 46.9249C33.8893 46.9249 34.3043 46.9249 34.7569 46.9249C34.9078 46.9249 34.9078 46.8872 35.0209 46.8495C35.1341 46.8118 35.285 46.8495 35.3981 46.8495C35.6245 46.8495 35.7753 46.9249 36.0394 46.9249C36.2657 46.9249 36.3789 47.0004 36.6052 47.0004C36.8315 47.0004 37.0955 47.0381 37.2841 47.0004C37.3596 46.9626 37.435 46.9249 37.5482 46.9249C37.6613 46.8872 37.7368 46.8872 37.8499 46.8872C38.0385 46.8872 38.3026 46.8118 38.4912 46.6986C38.8684 46.5477 39.2079 46.4346 39.5851 46.2837C39.9623 46.1328 40.3395 45.9819 40.7167 45.7933C41.0939 45.6047 41.4333 45.303 41.8105 45.1144C42.1123 44.9635 42.4141 44.8126 42.7158 44.6617C43.4702 44.36 43.9983 43.6056 44.6018 43.0775C45.1299 42.6248 45.7334 42.1345 46.0352 41.4932C46.1484 41.3046 46.2615 41.116 46.3747 40.9274C46.4878 40.7388 46.5633 40.5502 46.6764 40.3616C46.7142 40.2862 46.7519 40.173 46.7896 40.0599C46.7896 39.9844 46.8273 39.909 46.865 39.7958C46.9028 39.6072 46.9028 39.3809 46.9405 39.1923C46.9782 39.0792 46.9782 39.0037 46.9782 38.8905C46.9782 38.7774 47.0159 38.7397 47.0536 38.6265C47.0536 38.5888 47.0536 38.5511 47.0536 38.5133C47.0536 38.4379 47.0914 38.4002 47.0914 38.3625C47.1291 38.2493 47.1291 38.1361 47.1668 37.9853C47.2045 37.8721 47.1668 37.7967 47.2045 37.6835C47.2045 37.6458 47.2422 37.6458 47.2422 37.6081C47.2422 37.5703 47.2422 37.4572 47.2422 37.4195C47.2422 37.1931 47.2422 36.9668 47.28 36.7405C47.3177 36.5519 47.2422 36.3256 47.3177 36.0993C47.3931 35.8729 47.4308 35.6466 47.4308 35.4203C47.4308 35.2694 47.4686 35.2317 47.5063 35.1185C47.5063 35.0431 47.5063 34.8922 47.5063 34.8168C47.5063 34.5905 47.5063 34.3641 47.5063 34.1378C47.5063 34.0247 47.4308 33.9492 47.4308 33.8361C47.4308 33.7229 47.4308 33.6097 47.4308 33.5343C47.4308 33.4966 47.4308 33.3834 47.4308 33.3457C47.4308 33.308 47.3931 33.2703 47.3931 33.2703C47.3554 33.1571 47.3931 33.0439 47.3931 32.8931C47.3931 32.6667 47.3554 32.5536 47.3177 32.3273C47.28 32.1764 47.1668 31.9878 47.1291 31.8369C47.1291 31.8369 47.0914 31.7237 47.0914 31.686C47.0914 31.686 47.0914 31.6106 47.0914 31.5729C47.0914 31.5729 47.0536 31.4597 47.0536 31.422C47.0536 31.422 47.0536 31.3465 47.0536 31.3088C47.0536 31.2711 47.0159 31.2334 47.0159 31.1579C47.0159 31.1202 47.0159 31.0448 47.0159 31.0071C47.0159 30.9693 46.9782 30.9693 46.9405 30.8939C46.9405 30.8562 46.9405 30.7807 46.9405 30.7053C46.9405 30.6676 46.9028 30.6299 46.9028 30.5544C46.9028 30.5167 46.9028 30.4413 46.9028 30.4035C46.9028 30.2904 46.865 30.2149 46.8273 30.1018C46.7896 29.8755 46.7896 29.6491 46.7519 29.4228C46.6764 29.2342 46.601 28.9702 46.5256 28.7816C46.4501 28.593 46.4124 28.4044 46.337 28.2158C46.2615 28.0649 46.1484 27.914 46.0352 27.7631C45.8843 27.5745 45.7712 27.3859 45.658 27.1973C45.2431 26.5561 45.0168 25.8771 44.5641 25.2736C44.3378 24.9718 44.1492 24.6701 43.8097 24.4438C43.6588 24.3306 43.508 24.2174 43.3571 24.1043C43.1308 23.9534 42.9044 23.8402 42.6781 23.6894C42.3386 23.463 41.9614 23.2744 41.6219 23.0481C41.3202 22.8595 41.0184 22.7086 40.7167 22.5578C40.3017 22.3314 39.8491 22.256 39.4342 22.1806C39.2456 22.1428 39.0947 22.0297 38.9061 21.9542C38.6798 21.8788 38.4535 21.8411 38.2271 21.7656C37.8499 21.6525 37.4727 21.5016 37.0955 21.4262C36.8692 21.3884 36.6806 21.2753 36.4543 21.2376C36.4166 21.2376 36.3411 21.2376 36.3034 21.2376C36.2657 21.2376 36.2657 21.1998 36.1903 21.1621C36.1525 21.1621 36.0771 21.1621 36.0017 21.1621C35.9639 21.1621 35.9262 21.1244 35.8508 21.1244C35.7376 21.1244 35.6245 21.1244 35.549 21.1244C35.4359 21.1244 35.3981 21.0867 35.285 21.049C35.1718 21.049 35.0587 21.0867 34.9832 21.049C34.8701 21.0112 34.7192 20.9735 34.606 20.9358C34.1911 20.7849 33.8139 20.5963 33.399 20.4454C33.2858 20.1437 33.0972 20.0305 32.9086 19.9551C32.72 19.8796 32.5314 19.8796 32.3051 19.8796C32.3428 19.8796 32.3805 19.8796 32.9086 19.9551Z" fill="#92DDF6"/>
<path d="M32.0411 20.3323C31.8525 20.3323 31.7016 20.2191 31.4753 20.2946C31.3622 20.3323 31.2113 20.37 31.0981 20.4454C31.1358 20.3323 31.2113 20.2191 31.249 20.1437C30.985 20.0682 30.5323 20.3323 30.3814 20.5586C30.4192 20.6718 30.6832 20.5963 30.7209 20.4832C30.57 20.2946 30.1551 20.5586 30.0042 20.634C29.8156 20.7095 29.5893 20.8226 29.363 20.8604C29.2876 20.8981 29.1744 20.9358 29.099 20.9735C28.9481 21.0112 28.9104 20.8981 28.7595 20.9358C28.5709 20.9358 28.42 21.1998 28.3068 21.2753C28.1182 21.3884 27.8542 21.4639 27.6656 21.5393C27.4393 21.6148 27.2507 21.6902 27.0621 21.8034C26.8735 21.8788 26.6849 21.992 26.534 22.1051C26.3831 22.2183 26.2699 22.3314 26.0813 22.4823C26.1945 22.4823 26.2322 22.4069 26.3077 22.3314C26.4208 22.2183 26.534 22.1806 26.6471 22.0674C26.7226 21.992 26.798 21.9542 26.9112 21.8788C26.9866 21.8411 27.0621 21.8034 27.1375 21.7656C27.0998 21.9165 26.798 22.1428 26.7226 22.256C26.6849 22.2937 26.5717 22.4069 26.534 22.4446C26.4208 22.52 26.2699 22.4446 26.1568 22.4446C26.1568 22.4446 26.0436 22.4823 26.0436 22.52C26.0059 22.5578 25.9682 22.5578 25.9305 22.5955C25.855 22.6709 25.7796 22.7464 25.7419 22.8595C25.7041 22.9727 25.7041 23.1236 25.591 23.199C25.5155 23.2744 25.3647 23.3499 25.2892 23.4253C25.1383 23.5762 24.912 23.6139 24.7234 23.7271C24.6103 23.7648 24.4971 23.8025 24.3839 23.878C24.3085 23.9534 24.2708 24.0666 24.1953 24.142C23.8936 24.4815 23.705 24.9341 23.4409 25.3113C23.2901 25.4999 23.1392 25.6885 23.0637 25.8771C22.9883 25.9903 22.9883 26.1035 22.9506 26.2166C22.8751 26.3298 22.8374 26.4807 22.8751 26.5938C23.0637 26.5561 23.026 26.1789 23.1015 26.028C23.2146 25.8017 23.2901 25.5754 23.4409 25.3491C23.5918 25.1605 23.7804 24.9719 23.9313 24.7833C24.0822 24.5569 24.1953 24.4815 24.4594 24.4438C24.3462 24.4438 24.2331 24.5569 24.1199 24.5947C23.969 24.7078 23.8559 24.821 23.7427 24.9341C23.5541 25.1605 23.3278 25.3491 23.2146 25.6508C22.9883 26.1789 22.6865 26.707 22.3848 27.1973C22.3093 27.3105 22.2339 27.4614 22.1207 27.5745C21.9699 27.7254 21.8944 27.8009 21.7435 27.9517C21.5549 28.1781 21.4795 28.3667 21.4041 28.6307C21.3663 28.7439 21.2532 28.8947 21.2155 29.0079C21.14 29.1588 21.0646 29.2719 20.9514 29.4228C20.876 29.536 20.8005 29.6869 20.7628 29.8C20.7251 29.8755 20.6874 29.9509 20.6874 30.0263C20.6497 30.1018 20.6497 30.1772 20.6119 30.2527C20.5742 30.3658 20.6119 30.4035 20.6497 30.479C20.6874 30.5544 20.6497 30.6299 20.6497 30.7053C20.6497 30.8185 20.6874 30.8562 20.7251 30.9693C20.7251 31.0448 20.7251 31.1579 20.7251 31.2711C20.7251 31.4597 20.6874 31.6106 20.6119 31.7992C20.5742 31.8746 20.5365 31.9501 20.4988 32.0632C20.4611 32.1387 20.4611 32.2895 20.3856 32.3273C20.4233 32.4404 20.4233 32.5536 20.4233 32.7045C20.4233 32.7799 20.4611 32.8553 20.4988 32.9308C20.4988 33.0062 20.4988 33.1194 20.4988 33.1948C20.4988 33.4589 20.6119 33.6852 20.6874 33.9492C20.7628 34.2133 20.7628 34.5527 20.7628 34.8545C20.7628 35.0054 20.7628 35.1563 20.7628 35.3071C20.7628 35.4203 20.8005 35.458 20.8383 35.5712C20.8383 35.6089 20.8383 35.6466 20.8383 35.6843C20.8383 35.7221 20.876 35.7221 20.876 35.7598C20.9137 35.9107 20.876 36.0616 20.9137 36.1747C20.9514 36.3256 20.9137 36.4765 20.9514 36.6651C20.9514 36.7405 20.9891 36.816 21.0269 36.8914C21.0269 36.9668 20.9891 37.08 21.0269 37.1554C21.0269 37.2309 21.0646 37.2309 21.0646 37.3063C21.0646 37.344 21.0269 37.3818 21.0269 37.4195C21.0269 37.4949 21.0646 37.5326 21.0269 37.6081C21.0269 37.6835 20.9891 37.6835 20.9514 37.759C20.9514 37.8344 20.9891 37.8721 20.9891 37.9476C21.0269 38.0607 21.0646 38.2116 21.1023 38.3248C21.1777 38.6265 21.2155 38.9283 21.3286 39.1923C21.4041 39.3432 21.4418 39.5318 21.4795 39.6827C21.5172 39.7581 21.4795 39.8713 21.4795 39.9467C21.4795 39.9844 21.5549 40.0976 21.5927 40.1353C21.7435 40.3994 21.819 40.588 22.083 40.7388C22.2339 40.6257 21.8567 40.2108 21.7813 40.1353C21.819 40.173 21.819 40.2485 21.819 40.3239C21.8567 40.3994 21.8944 40.4748 21.9321 40.588C21.9699 40.7388 22.0453 40.852 22.1207 40.9652C22.1962 41.0783 22.3471 41.1915 22.3471 40.9652C22.3471 40.8143 22.1962 40.6634 22.0453 40.7388C21.819 40.852 21.9321 41.3801 22.1207 41.531C22.2339 41.6064 22.3471 41.6818 22.4602 41.6064C22.6488 41.531 22.6488 41.4555 22.6488 41.2669C22.6488 41.4932 22.6865 41.8704 22.9129 41.9836C23.2146 42.1345 23.2523 41.6818 23.026 41.5687C22.6488 41.3801 22.7243 41.9082 22.7997 42.0968C22.9129 42.3608 23.0637 42.5117 23.3278 42.6626C23.5541 42.8134 23.7804 42.8512 23.9313 43.0775C24.0822 43.2661 24.1576 43.4547 24.3462 43.6433C24.648 43.9828 25.1383 44.1714 25.4778 44.5108C25.6287 44.6994 25.7796 44.8503 25.8927 45.0389C26.0059 45.2652 26.0813 45.4538 26.2699 45.6424C26.0436 45.5293 25.855 45.303 25.7041 45.1521C25.5533 44.9635 25.4401 44.7372 25.2892 44.5486C25.3647 44.9258 25.591 45.0766 25.855 45.303C25.9682 45.4161 26.0813 45.4916 26.1945 45.567C26.3454 45.6802 26.4963 45.7933 26.6471 45.8688C26.7603 45.9442 26.9112 45.9819 27.0243 46.0574C27.0998 46.0951 27.1375 46.1328 27.2129 46.2082C27.2884 46.246 27.3261 46.2837 27.4015 46.3214C27.477 46.3591 27.5147 46.4346 27.5901 46.4723C27.7033 46.5477 27.7033 46.51 27.8165 46.5477C27.9674 46.5854 28.156 46.6609 28.3446 46.5854C28.3446 46.4723 28.2314 46.3968 28.156 46.3214C28.0428 46.2082 27.8919 46.0951 27.7788 45.9819C27.6656 45.8688 27.5524 45.7179 27.4393 45.6047C27.4015 45.5293 27.3638 45.4538 27.3261 45.4161C27.2507 45.3407 27.1752 45.3407 27.0998 45.2652C26.9866 45.1521 26.9112 45.0389 26.798 44.9635C26.6471 44.8503 26.534 44.7372 26.3831 44.624C26.1568 44.4354 26.0059 44.2091 25.7796 44.0205C25.3647 43.5678 24.9875 43.0775 24.648 42.5871C24.4594 42.3231 24.2331 42.059 24.0067 41.7573C23.9313 41.6441 23.8181 41.531 23.705 41.4178C23.6295 41.3046 23.5918 41.1915 23.5164 41.0783C23.4409 40.9652 23.3278 40.852 23.2523 40.7766C23.1769 40.6634 23.1015 40.5502 23.026 40.4371C22.8751 40.2108 22.6488 40.0222 22.4979 39.7581C22.2339 39.3432 21.9699 38.8151 21.7435 38.3625C21.6304 38.1362 21.5172 37.8721 21.4041 37.6458C21.2909 37.4195 21.2155 37.2309 21.2155 36.9668C21.2155 36.4387 21.2155 35.9107 21.2155 35.3826C21.2155 35.1185 21.2909 34.9299 21.2909 34.6659C21.2909 34.4019 21.2909 34.1378 21.2909 33.8738C21.2909 33.6097 21.2532 33.308 21.2909 33.0817C21.3663 32.8176 21.4418 32.5536 21.5172 32.2895C21.6681 31.7237 21.7058 31.1202 21.8567 30.5544C21.9699 30.0263 22.2716 29.4983 22.5734 29.0456C22.6488 28.9325 22.6865 28.8193 22.7243 28.6684C22.7997 28.5175 22.8751 28.3289 22.9129 28.1781C23.026 27.914 23.1392 27.6123 23.2523 27.3482C23.4787 26.8579 23.7804 26.4429 24.0067 25.9526C24.1199 25.7263 24.1953 25.4999 24.3462 25.2736C24.4971 25.0473 24.648 24.821 24.8743 24.6324C25.3269 24.1797 25.7796 23.7271 26.2699 23.3499C26.3831 23.2745 26.4585 23.1613 26.5717 23.0481C26.6471 23.0104 26.6849 22.9727 26.7603 22.935C26.8358 22.8973 26.8735 22.8218 26.9112 22.7841C27.0998 22.5955 27.4015 22.4069 27.6279 22.2183C28.0051 21.9165 28.3446 21.6148 28.7218 21.3507C29.0612 21.0867 29.4762 20.9735 29.8534 20.7849C30.2683 20.5963 30.7209 20.37 31.1736 20.2946C31.2867 20.2568 31.4376 20.2191 31.5508 20.1814C31.5885 20.1814 31.6639 20.1437 31.6639 20.106C31.8148 20.2191 31.8525 20.1437 32.0411 20.3323Z" fill="#92DDF6"/>
<path d="M10.5029 18.9744C5.44841 20.2946 1.33692 24.5947 0.243042 29.6869C0.205322 29.8377 0.167602 30.0263 0.280762 30.1772C0.393923 30.3281 0.582523 30.3658 0.771123 30.4035C2.31765 30.6676 3.86417 30.8939 5.37297 31.1579C5.67473 31.1957 5.97649 31.2334 6.24053 31.1202C6.46685 31.0071 6.58001 30.7807 6.73089 30.5544C8.84321 26.8956 12.4643 23.2367 14.5767 19.5402C13.5959 19.4647 11.1441 19.427 10.1634 19.3516" fill="#053B5F"/>
<path d="M11.6722 18.5217C11.295 18.5217 10.9933 18.484 10.6538 18.6349C10.3897 18.748 10.1257 18.7858 9.89938 18.8989C9.63534 19.0121 9.3713 19.0875 9.1827 19.3138C8.88094 19.6533 9.1827 19.7288 9.52218 19.8042C9.78622 19.8796 10.1634 19.7665 10.3897 19.691C10.6161 19.5779 10.8424 19.4647 10.8801 19.2007C10.9178 19.0498 10.8047 18.8989 10.9555 18.7858C11.1064 18.6726 11.2196 18.748 11.3705 18.8612C11.6345 19.0498 11.7854 19.3516 12.0117 19.5402C12.0871 19.2007 10.9933 19.3516 10.7292 19.3516C10.6161 19.3516 10.4652 19.3138 10.352 19.3516C10.2389 19.3893 10.2011 19.4647 10.1257 19.5024C9.89938 19.5402 9.5599 19.5024 9.29586 19.5024C8.76778 19.5024 8.2397 19.4647 7.78706 19.691C7.56074 19.8042 7.52302 19.9174 7.40986 20.1437C7.33442 20.3323 7.22126 20.4077 7.1081 20.5963C6.99494 20.4832 6.50458 20.37 6.3537 20.4077C6.05194 20.4454 5.75018 20.5963 5.56158 20.8604C5.37297 21.0867 5.37297 21.2753 5.25981 21.5393C5.14665 21.7656 4.84489 22.0674 4.99577 22.3692C5.18437 22.1428 5.37298 21.9165 5.52386 21.6525C5.67474 21.4262 5.82562 21.1244 6.08966 20.9735C6.42914 20.7849 6.42914 21.0867 6.27826 21.3884C6.12738 21.6525 5.86334 21.9542 5.63702 22.1051C5.63702 21.9542 5.7879 21.8788 5.86334 21.7656C5.9765 21.6525 6.05194 21.5016 6.12738 21.3884C6.24054 21.2753 6.3537 21.2753 6.46686 21.1621C6.58002 21.049 6.58002 20.9735 6.69318 20.8604C7.18354 20.4832 7.56074 20.4077 8.16426 20.4077C7.40986 20.4077 6.88178 20.634 6.20282 20.8981C5.67474 21.1244 5.29753 21.4639 4.92033 21.8788C4.76945 22.0297 4.61857 22.256 4.42997 22.3692C4.24137 22.52 3.86417 22.52 3.67557 22.6332C3.41153 22.7464 3.10977 22.8218 2.95889 23.0481C2.92117 23.1236 2.88345 23.3122 2.84573 23.4253C2.77029 23.5385 2.65713 23.6516 2.65713 23.8025C2.99661 23.5762 3.26065 23.2367 3.60013 23.0481C3.93961 22.8218 4.31681 22.6332 4.69401 22.4446C4.61857 22.5955 4.31681 22.6709 4.16593 22.7841C3.90189 22.9727 3.60013 23.1613 3.33609 23.3499C2.88345 23.6894 2.43081 24.142 2.01589 24.5192C2.05361 24.4815 2.01589 24.4815 2.01589 24.4438C1.97817 24.7078 1.52553 25.1605 1.63869 25.3868C2.01589 25.1982 2.09133 24.6701 2.46853 24.4438C2.27993 24.7078 2.12905 25.0096 1.90273 25.2359C1.75185 25.4245 1.67641 25.5754 1.52553 25.764C1.63869 25.5754 1.82729 25.4622 1.97817 25.3113C2.12905 25.1604 2.27993 24.9341 2.39309 24.7455C2.58169 24.4815 2.65713 24.1043 2.88345 23.8402C2.39309 24.406 1.94045 25.0473 1.52553 25.6885C1.37465 25.9526 1.29921 26.2921 1.14833 26.5561C0.997449 26.8956 1.03517 27.2351 0.846568 27.5745C0.733408 27.8009 0.544808 27.914 0.431648 28.1781C0.318488 28.4421 0.280768 28.7816 0.205328 29.0833C0.129887 29.4228 0.0167272 29.7246 -0.0964329 30.0641C-0.171873 30.2527 -0.247313 30.5544 -0.398193 30.743C-0.247313 30.743 -0.209593 30.6299 -0.0964329 30.5921C-0.0209928 30.5921 0.0921673 30.5921 0.167607 30.5921C0.243048 30.5921 0.280768 30.5544 0.318488 30.479C0.620248 30.4035 0.884288 30.479 1.14833 30.5544C1.14833 30.0641 0.167607 30.1018 -0.0587129 29.8C0.205328 29.8 0.846568 29.6491 0.771128 30.0641C0.733408 30.3658 0.356208 30.6299 0.280768 30.9316C0.620248 31.0448 0.997449 30.9316 1.33693 31.0071C1.52553 31.0448 1.71413 31.0071 1.90273 31.0448C2.09133 31.0825 2.12905 31.1579 2.31765 31.1957C2.65713 31.1957 3.03433 31.1957 3.37381 31.1957C3.63785 31.1957 4.05277 31.0825 4.16593 30.8185C3.97733 30.8185 3.75101 30.8185 3.56241 30.8185C3.29837 30.8185 3.18521 30.743 2.92117 30.7053C2.73257 30.6676 2.54397 30.7053 2.35537 30.6676C2.27993 30.479 2.12905 30.4413 1.90273 30.4413C2.31765 30.4413 2.69485 30.5544 3.10977 30.5544C3.33609 30.5544 3.52469 30.6676 3.75101 30.6676C3.97733 30.6676 4.09049 30.6676 4.31681 30.7807C4.65629 30.9316 4.92033 31.1202 5.18437 31.3465C5.33526 31.4974 5.67474 31.7992 5.75018 31.9878C5.52386 31.7615 5.29753 31.4597 5.07121 31.2334C4.95805 31.1202 4.46769 30.5921 4.31681 30.6676C4.54313 31.3088 4.76945 31.9878 4.76945 32.6667C4.76945 32.8931 4.80717 33.2325 4.88261 33.4211C4.99577 33.6852 5.18437 33.7229 5.4107 33.8738C5.7879 33.4589 5.82562 32.5913 5.86334 32.0255C5.90106 31.3088 6.1651 30.6676 6.20282 29.9509C6.20282 29.4605 5.9765 29.0079 5.86334 28.5175C5.7879 27.9895 5.90106 27.4237 6.05194 26.9333C6.20282 26.4052 6.5423 25.9903 6.76862 25.4999C7.03266 24.9718 7.44758 24.406 7.8625 23.9911C8.08882 23.7648 8.27742 23.5008 8.50374 23.2367C8.73006 22.9727 8.95638 22.7841 9.1827 22.5578C9.5599 22.1806 9.97482 21.9165 10.352 21.577C10.5029 21.4262 10.6915 21.2753 10.8424 21.1244C11.0687 20.8981 11.1441 20.5963 11.3327 20.37C11.4836 20.1814 11.7477 19.9928 11.8231 19.7288C11.8985 19.5402 12.0871 19.163 11.974 18.9744C11.9363 19.0498 11.8608 19.0875 11.6722 18.5217Z" fill="#053B5F"/>
<path d="M15.6332 16.5016C12.2845 16.5016 9.53564 13.7629 9.53564 10.4266V9.03237C9.53564 5.69613 12.2845 2.95743 15.6332 2.95743C18.9818 2.95743 21.7307 5.69613 21.7307 9.03237V10.4266C21.7307 13.7629 18.9818 16.5016 15.6332 16.5016Z" fill="#92DDF6"/>
<path d="M21.4807 8.70867C20.581 7.36422 19.7564 5.99487 19.0317 4.55083C16.3328 5.92018 13.259 6.54261 10.2102 6.36833C10.1353 7.33932 9.88536 8.28542 9.48552 9.15682C8.98572 7.23973 8.51091 5.12346 9.36057 3.33086C9.96033 2.0611 11.2098 1.1399 12.5593 0.691745C13.9087 0.243594 15.3831 0.243594 16.7826 0.442772C18.0071 0.617053 19.2566 0.940718 20.2062 1.73743C21.2308 2.55904 21.8055 3.8537 22.0055 5.14836C22.2054 6.44302 22.0554 7.76258 21.7556 9.05724C21.6306 8.75847 21.4307 8.4846 21.1558 8.31032" fill="#053B5F"/>
<path d="M9.46054 8.90787C9.28561 8.78338 9.21064 8.48462 9.16066 8.28544C9.16066 8.26054 9.13567 8.16095 9.11068 8.13605C9.08569 8.11116 9.03571 8.08626 9.01072 8.03646C8.98573 8.01157 8.93575 7.93688 8.93575 7.88708C8.93575 7.83729 8.98573 7.81239 8.98573 7.7377C9.08569 7.86218 9.13567 7.98667 9.18565 8.13605C9.21064 8.21075 9.23563 8.28544 9.26062 8.36013C9.28561 8.43482 9.26062 8.53441 9.28561 8.6091C9.43555 8.58421 9.0607 8.03646 9.03571 7.96177C8.98573 7.83729 8.98573 7.7377 8.98573 7.58831C8.98573 7.46383 8.98573 7.28955 8.88577 7.21485C8.98573 7.36424 9.01072 7.58831 9.0607 7.76259C9.11068 7.91198 9.18565 8.06136 9.26062 8.16095C9.33559 7.96177 9.23563 7.7128 9.16066 7.53852C9.13567 7.48872 9.11068 7.43893 9.0607 7.38913C9.03571 7.33934 9.03571 7.28955 9.01072 7.26465C8.96074 7.18996 8.86078 7.16506 8.86078 7.06547C8.76082 7.06547 8.86078 7.14016 8.86078 7.16506C8.86078 7.21485 8.86078 7.26465 8.86078 7.31444C8.86078 7.33934 8.91076 7.36424 8.91076 7.41403C8.93575 7.46383 8.88577 7.51362 8.96074 7.53852C8.96074 7.48872 8.88577 7.36424 8.86078 7.28955C8.83579 7.16506 8.78581 7.04057 8.76082 6.91609C8.73583 6.86629 8.71084 6.86629 8.71084 6.8165C8.71084 6.7667 8.71084 6.71691 8.71084 6.66711C8.68585 6.61732 8.66086 6.59242 8.66086 6.51773C8.66086 6.44304 8.71084 6.39324 8.71084 6.31855C8.8108 6.31855 8.83579 6.44304 8.86078 6.51773C8.88577 6.59242 8.93575 6.69201 8.96074 6.7916C8.96074 6.84139 8.96074 6.89119 8.96074 6.94098C8.96074 6.99078 9.01072 7.04057 9.01072 7.09037C9.01072 7.14016 9.01072 7.18996 9.01072 7.23975C9.01072 7.28955 9.0607 7.28955 9.0607 7.33934C9.0607 7.26465 9.01072 7.14016 9.01072 7.06547C8.98573 6.91609 8.91076 6.7667 8.88577 6.64222C8.86078 6.54263 8.86078 6.44304 8.83579 6.34345C8.8108 6.26876 8.86078 6.14427 8.78581 6.09448C8.91076 6.06958 8.88577 6.34345 8.83579 6.41814C8.71084 6.54263 8.68585 6.16917 8.68585 6.09448C8.68585 5.99489 8.66086 5.72102 8.76082 5.67122C8.8108 5.62143 9.0607 5.77081 9.0607 5.8206C9.01072 5.8206 8.93575 5.8704 8.88577 5.8704C8.83579 5.8953 8.76082 5.94509 8.71084 5.92019C8.71084 5.74591 8.86078 5.59653 8.78581 5.39735C8.76082 5.39735 8.73583 5.39735 8.71084 5.37245C8.71084 5.27286 8.63587 5.22307 8.66086 5.09858C8.66086 5.02389 8.68585 4.89941 8.73583 4.82471C8.78581 4.72512 8.88577 4.72512 8.96074 4.65043C9.01072 4.60064 9.03571 4.45125 9.01072 4.37656C8.88577 4.47615 9.01072 4.72512 9.01072 4.84961C9.01072 4.9243 9.01072 4.99899 9.01072 5.07369C9.01072 5.12348 8.96074 5.22307 8.98573 5.24797C8.78581 5.27286 8.78581 4.87451 8.8108 4.75002C8.83579 4.62553 8.88577 4.55084 8.98573 4.50105C9.08569 4.45125 9.18565 4.40146 9.26062 4.30187C9.36058 4.17738 9.3106 4.12759 9.23563 4.0031C9.18565 3.92841 9.16066 3.82882 9.18565 3.72923C9.23563 3.53005 9.41056 3.40557 9.5605 3.30598C9.53551 3.20639 9.51052 3.1317 9.51052 3.03211C9.51052 2.93252 9.5605 2.85783 9.58549 2.78313C9.66046 2.63375 9.8104 2.55906 9.98533 2.53416C9.96034 2.45947 9.8104 2.40968 9.73543 2.35988C9.68545 2.40968 9.71044 2.45947 9.71044 2.53416C9.71044 2.58396 9.66046 2.63375 9.66046 2.68355C9.68545 2.80803 9.78541 2.78313 9.86038 2.70844C9.93535 2.63375 9.96034 2.48437 9.96034 2.38478C9.96034 2.28519 10.0103 2.1856 10.0103 2.06111C10.0103 1.78724 10.3102 1.86193 10.5101 1.78724C10.5851 1.76235 10.685 1.58806 10.5601 1.58806C10.4601 1.58806 10.5101 1.78724 10.5601 1.83704C10.6101 1.81214 10.685 1.78724 10.71 1.76235C10.785 1.68765 10.71 1.63786 10.6351 1.66276C10.4601 1.68765 10.3602 1.86193 10.2352 1.96152C10.2852 2.1856 10.5851 1.91173 10.6601 1.83704C10.785 1.71255 10.86 1.58806 10.81 1.43868C10.91 1.58806 11.1848 1.2146 11.2598 1.13991C11.3598 1.06522 11.4347 1.06522 11.5097 0.990529C11.5847 0.915837 11.6597 0.791351 11.7346 0.741556C11.6597 0.89094 11.8846 0.866043 11.9595 0.816248C12.0345 0.766454 12.2094 0.666864 12.2344 0.592173C12.1594 0.492583 11.9595 0.592173 11.8846 0.641967C11.7846 0.716659 11.6846 0.89094 11.8846 0.866043C12.0345 0.841146 12.1844 0.716659 12.2844 0.61707C12.3594 0.542378 12.5343 0.442789 12.5843 0.3432C12.5093 0.368097 12.2594 0.567275 12.3844 0.61707C12.5093 0.666864 12.7092 0.567275 12.8342 0.542378C12.8342 0.467686 12.3594 0.61707 12.3094 0.716659C12.3344 0.766454 12.5093 0.716659 12.5843 0.691762C12.7092 0.666864 12.8592 0.567275 12.9841 0.517481C13.1091 0.442789 13.234 0.368097 13.359 0.318302C13.4339 0.268508 13.5339 0.24361 13.5839 0.193816C13.5339 0.193816 13.4589 0.24361 13.384 0.24361C13.6588 0.24361 13.9087 0.318302 14.1836 0.3432C14.0087 0.3432 13.8338 0.193816 13.6588 0.24361C13.5089 0.293405 13.384 0.442789 13.5589 0.567275C13.7088 0.691762 13.9587 0.641967 14.1337 0.567275C14.3336 0.467686 14.5335 0.3432 14.7334 0.218713C14.5835 0.542378 15.2082 0.368097 15.3332 0.268508C15.2832 0.218713 15.2332 0.168918 15.2082 0.119124C15.3332 0.0195347 15.5831 -0.0302599 15.733 0.0195347C15.808 0.044432 15.8829 0.0693293 15.9329 0.0942266C16.0079 0.119124 16.0829 0.168918 16.1578 0.168918C16.1828 0.318302 16.2078 0.368097 16.3078 0.492583C16.2328 0.392994 16.0829 0.392994 15.9829 0.3432C15.9329 0.318302 15.9079 0.318302 15.833 0.318302C15.758 0.318302 15.658 0.24361 15.5831 0.268508C15.5831 0.318302 15.683 0.392994 15.733 0.417891C15.758 0.417891 15.833 0.442789 15.8829 0.467686C15.9579 0.492583 15.9579 0.467686 16.0329 0.442789C16.2078 0.392994 16.4327 0.442789 16.6077 0.442789C16.7076 0.442789 16.8076 0.417891 16.9075 0.442789C16.9575 0.442789 16.9825 0.467686 17.0075 0.492583C17.0325 0.492583 17.1074 0.492583 17.1324 0.517481C17.1574 0.542378 17.1824 0.567275 17.2074 0.592173C17.2324 0.61707 17.3074 0.592173 17.3324 0.61707C17.3823 0.641967 17.3573 0.666864 17.4323 0.666864C17.4823 0.666864 17.5323 0.61707 17.5823 0.61707C17.6322 0.61707 17.6822 0.641967 17.7322 0.61707C17.7822 0.61707 17.7822 0.567275 17.8322 0.567275C17.9071 0.542378 18.0321 0.567275 18.132 0.567275C18.332 0.567275 18.4569 0.666864 18.6318 0.741556C18.7568 0.791351 18.8817 0.866043 18.9817 0.965632C19.0567 1.01543 19.0817 1.06522 19.1816 1.09012C19.2316 1.11502 19.4065 1.16481 19.4565 1.16481C19.4315 1.04032 19.1816 0.965632 19.0817 0.915837C18.8817 0.816248 18.7068 0.915837 18.5069 0.940735C18.5319 1.04032 18.6318 1.04032 18.7068 1.04032C18.7818 1.06522 18.8817 1.06522 18.9817 1.06522C19.0817 1.06522 19.1816 1.01543 19.3066 1.01543C19.4065 1.01543 19.4565 0.990529 19.5565 1.01543C19.7314 1.04032 19.9313 1.16481 20.1062 1.2644C20.1812 1.31419 20.2312 1.36399 20.3062 1.38889C20.3311 1.41378 20.3561 1.46358 20.4061 1.46358C20.4561 1.48848 20.5061 1.48848 20.5311 1.51337C20.4561 1.56317 20.3811 1.51337 20.3311 1.48848C20.2312 1.46358 20.1812 1.43868 20.0812 1.43868C20.0063 1.43868 19.6314 1.31419 19.6314 1.41378C19.7564 1.43868 19.8563 1.48848 19.9813 1.51337C20.0812 1.53827 20.2312 1.58806 20.3311 1.61296C20.4061 1.63786 20.5061 1.71255 20.581 1.73745C20.5311 1.73745 20.631 1.78724 20.681 1.86193C20.606 1.78724 20.5561 1.63786 20.5061 1.53827C20.606 1.63786 20.656 1.76235 20.731 1.86193C20.8309 1.98642 20.9559 2.11091 21.0309 2.26029C21.0808 2.35988 21.1558 2.48437 21.1808 2.60885C21.2058 2.65865 21.2308 2.78313 21.2308 2.83293C21.2058 2.88272 21.1558 2.88272 21.1308 2.95742C21.2808 2.93252 21.2308 2.68355 21.2308 2.58396C21.2308 2.50926 21.1308 2.26029 21.0559 2.26029C20.9809 2.50926 21.2558 2.85783 21.4057 3.03211C21.4807 3.15659 21.6056 3.25618 21.6806 3.38067C21.7306 3.45536 21.8555 3.55495 21.8805 3.65454C21.9055 3.77903 21.8555 3.85372 21.8305 3.95331C21.8056 4.07779 21.8305 4.20228 21.8805 4.30187C21.9055 4.37656 21.9555 4.47615 21.9805 4.55084C22.0055 4.60064 22.0804 4.75002 22.1304 4.77492C22.0804 4.72512 22.0555 4.67533 22.0055 4.65043C22.0305 4.72512 22.0804 4.84961 22.0804 4.9492C22.1054 5.04879 22.1304 5.17328 22.1304 5.27286C22.1304 5.49694 22.2054 5.69612 22.2304 5.92019C22.2304 6.06958 22.2554 6.34345 22.2054 6.46793C22.1304 6.46793 22.1304 6.46793 22.1304 6.59242C22.1304 6.69201 22.1304 6.7916 22.1054 6.89119C22.0804 6.99078 22.0554 7.06547 22.0305 7.16506C22.0055 7.23975 21.9555 7.31444 21.9805 7.41403C22.0055 7.51362 22.0555 7.61321 22.0804 7.7128C22.1054 7.78749 22.0804 7.88708 22.0804 7.98667C22.0804 8.16095 22.1054 8.33523 22.0305 8.48462C21.9805 8.53441 21.9305 8.83318 21.9055 8.83318C21.8805 8.75849 21.9055 8.68379 21.8805 8.58421C21.8555 8.48462 21.8305 8.43482 21.8555 8.33523C21.9055 8.16095 21.8805 7.98667 21.9305 7.78749C21.9555 7.6879 21.9305 7.58831 21.9055 7.48872C21.8805 7.38913 21.9055 7.31444 21.9055 7.21485C21.9055 7.04057 21.9305 6.84139 21.9055 6.66711C21.8805 6.56752 21.8555 6.51773 21.8555 6.41814C21.8555 6.34345 21.8305 6.24386 21.8056 6.16917C21.7556 5.96999 21.7306 5.79571 21.6556 5.62143C21.5057 5.19817 21.3557 4.77492 21.1808 4.37656C21.0309 4.0529 20.8809 3.75413 20.681 3.48026C20.4811 3.23129 20.1812 3.03211 19.9063 2.85783C19.6314 2.68355 19.3316 2.50926 19.0067 2.38478C18.7818 2.31009 18.5819 2.2105 18.3569 2.1607C18.0821 2.11091 17.8072 2.03622 17.5323 1.96152C17.0825 1.81214 16.6077 1.71255 16.1328 1.61296C15.733 1.53827 15.3582 1.38889 14.9583 1.38889C14.7834 1.38889 14.6085 1.36399 14.4335 1.38889C14.2336 1.41378 14.0337 1.48848 13.8588 1.53827C13.6838 1.58806 13.4839 1.58806 13.309 1.66276C13.0591 1.73745 12.8592 1.83704 12.6842 1.98642C12.0345 2.48437 11.4098 2.98231 10.835 3.53005C10.76 3.60475 10.76 3.70433 10.685 3.75413C10.6351 3.82882 10.5601 3.87862 10.5351 3.95331C10.4351 4.12759 10.3102 4.30187 10.1852 4.50105C10.0353 4.75002 9.93535 4.99899 9.83539 5.27286C9.8104 5.37245 9.71044 5.44715 9.68545 5.57163C9.66046 5.67122 9.63547 5.74591 9.63547 5.8455C9.63547 5.8953 9.63547 5.92019 9.63547 5.96999C9.63547 6.01978 9.61048 6.04468 9.58549 6.06958C9.5605 6.16917 9.58549 6.26876 9.58549 6.34345C9.58549 6.44304 9.53551 6.49283 9.53551 6.59242C9.53551 6.61732 9.53551 6.66711 9.53551 6.69201C9.53551 6.74181 9.51052 6.7667 9.48553 6.7916C9.46054 6.89119 9.48553 6.96588 9.46054 7.06547C9.46054 7.09037 9.43555 7.11526 9.41056 7.14016C9.41056 7.18996 9.41056 7.26465 9.41056 7.31444C9.41056 7.48872 9.38557 7.663 9.43555 7.83729C9.46054 7.98667 9.46054 8.13605 9.51052 8.28544C9.53551 8.33523 9.5605 8.40992 9.5605 8.48462C9.5605 8.53441 9.5605 8.58421 9.5605 8.6091C9.5605 8.6589 9.61048 8.634 9.58549 8.70869C9.58549 8.70869 9.5605 8.78338 9.53551 8.78338C9.51052 8.83318 9.51052 8.85808 9.51052 8.90787C9.5605 9.03236 9.48553 9.08215 9.46054 8.90787Z" fill="#053B5F"/>
<path d="M9.61056 9.05724H9.58557C9.83547 8.95765 9.91044 8.70867 10.0604 8.5095C10.0854 8.4597 10.1603 8.4348 10.2103 8.36011C10.2353 8.28542 10.2103 8.21073 10.2353 8.16093C10.2353 8.11114 10.2853 8.06134 10.2853 7.98665C10.2853 7.91196 10.2853 7.86217 10.3353 7.81237C10.3603 7.96176 10.2603 8.08624 10.1853 8.21073C10.1353 8.31032 10.0604 8.53439 9.96042 8.58419C9.96042 8.53439 10.0104 8.4846 10.0354 8.4348C10.0604 8.38501 10.0854 8.33522 10.0854 8.28542C10.1353 8.18583 10.1603 8.13604 10.2103 8.03645C10.3103 7.86217 10.2353 7.63809 10.1603 7.48871C10.1104 7.38912 10.0604 7.33932 10.0604 7.21484C10.0604 7.09035 10.1353 7.04056 10.1603 6.94097C10.1853 6.89117 10.1853 6.89117 10.1853 6.84138C10.1603 6.84138 10.1353 6.81648 10.1353 6.79158C10.1353 6.76669 10.1353 6.71689 10.1353 6.69199C10.1353 6.6173 10.1603 6.41812 10.1104 6.39323C10.1104 6.46792 10.1853 6.49282 10.1853 6.56751C10.1853 6.6173 10.1853 6.71689 10.1853 6.76669C10.1853 6.6422 10.1603 6.46792 10.1853 6.34343C10.2603 6.36833 10.3353 6.46792 10.4102 6.49282C10.5102 6.51771 10.6601 6.46792 10.7601 6.49282C10.8601 6.49282 10.935 6.56751 11.06 6.5924C11.11 6.5924 11.1599 6.5924 11.1849 6.5924C11.2349 6.5924 11.2599 6.6671 11.3349 6.6173C11.3099 6.49282 11.085 6.46792 11.01 6.44302C11.01 6.56751 11.2349 6.6173 11.3099 6.6422C11.3848 6.6422 11.4598 6.6422 11.5348 6.6422C11.6098 6.6422 11.6347 6.5924 11.7097 6.5924C11.6597 6.54261 11.5598 6.56751 11.4848 6.56751C11.5848 6.56751 11.7097 6.5924 11.7847 6.56751C11.8347 6.56751 11.8597 6.51771 11.8846 6.51771C11.9346 6.51771 11.9846 6.51771 12.0346 6.49282C11.9846 6.44302 11.9096 6.46792 11.8347 6.44302C11.7847 6.44302 11.7347 6.39323 11.6847 6.39323C11.7597 6.31853 11.8347 6.36833 11.9096 6.39323C11.9846 6.41812 12.0846 6.39323 12.1595 6.41812C12.2595 6.44302 12.3095 6.44302 12.4094 6.44302C12.4844 6.44302 12.5344 6.49282 12.6093 6.49282C12.7593 6.51771 12.9092 6.49282 13.0342 6.41812C13.0842 6.39323 13.1341 6.34343 13.2091 6.31853C13.2591 6.29364 13.3341 6.26874 13.384 6.24384C13.6839 6.19405 14.0338 6.19405 14.3337 6.11936C14.4836 6.09446 14.6335 5.96997 14.7835 5.94507C14.8584 5.92018 14.9084 5.89528 14.9584 5.89528C14.9834 5.89528 15.1333 5.84549 15.1583 5.84549C15.1083 5.89528 15.0833 5.87038 15.0334 5.89528C15.0084 5.89528 14.9834 5.92018 14.9834 5.94507C14.8834 5.96997 14.8085 5.96997 14.7335 6.01977C14.6585 6.04466 14.5836 6.09446 14.5336 6.09446C14.4586 6.11936 14.3836 6.09446 14.3836 6.19405C14.5836 6.21895 14.7585 6.29364 14.9584 6.24384C15.1333 6.19405 15.3332 6.16915 15.5082 6.14425C15.6831 6.09446 15.833 6.04466 16.008 5.99487C16.1329 5.94508 16.3079 5.82059 16.4328 5.84549C16.2579 5.87038 16.1079 5.94508 15.933 5.99487C15.7831 6.04466 15.6331 6.04466 15.4832 6.04466C15.5332 6.04466 15.6081 6.04466 15.6581 6.04466C15.7081 6.04466 15.7581 5.99487 15.8081 5.99487C15.858 5.99487 15.908 5.99487 15.958 5.96997C16.008 5.94508 16.033 5.94507 16.1079 5.94507C16.1829 5.94507 16.3828 5.96997 16.4578 5.94507C16.6077 5.87038 16.4078 5.84549 16.3828 5.79569C16.4578 5.82059 16.4828 5.77079 16.5578 5.77079C16.6077 5.7459 16.6827 5.77079 16.7327 5.7459C16.8077 5.721 16.9826 5.6712 17.0326 5.59651C17.0076 5.59651 16.9826 5.59651 16.9826 5.59651C17.1075 5.62141 17.2075 5.52182 17.3075 5.47203C17.3574 5.44713 17.4324 5.42223 17.4824 5.39733C17.5324 5.37244 17.6073 5.37244 17.6573 5.34754C17.9072 5.24795 18.0821 5.09857 18.2571 4.89939C18.2821 4.92429 18.332 4.92429 18.357 4.94918C18.382 4.97408 18.407 5.02388 18.432 5.02388C18.532 5.04877 18.5569 4.92429 18.5819 4.87449C18.6319 4.7998 18.7069 4.67531 18.8068 4.65042C18.8318 4.65042 18.9068 4.67531 18.9318 4.67531C18.9818 4.67531 19.0318 4.65042 19.0817 4.70021C19.1067 4.67531 19.1317 4.65042 19.1567 4.65042C19.1817 4.75001 19.1317 4.87449 19.1567 4.97408C19.1567 5.02387 19.2067 5.02387 19.2067 5.07367C19.2067 5.12346 19.2067 5.17326 19.2067 5.22305C19.2317 5.39733 19.4066 5.49692 19.4566 5.64631C19.4816 5.7459 19.4316 5.84549 19.4066 5.94507C19.3816 6.01977 19.4316 6.16915 19.5066 6.19405C19.6315 6.24384 19.6065 6.06956 19.6065 5.99487C19.6065 5.89528 19.6315 5.7459 19.6065 5.6712C19.5066 5.79569 19.5066 5.92018 19.5565 6.06956C19.6065 6.24384 19.6565 6.26874 19.8064 6.36833C19.8814 6.29364 19.8314 6.11936 19.8314 6.01977C19.8314 6.21895 19.8314 6.36833 19.9314 6.56751C20.0064 6.69199 20.0813 6.81648 20.1813 6.91607C20.2812 7.04056 20.3312 7.18994 20.4062 7.33932C20.4562 7.41402 20.5311 7.43891 20.5561 7.48871C20.6061 7.5385 20.6061 7.61319 20.6811 7.66299C20.7561 7.71278 20.831 7.73768 20.881 7.76258C20.931 7.81237 20.981 7.88706 21.0309 7.91196C21.1309 7.96176 21.1309 7.96176 21.1559 8.06135C21.1809 8.11114 21.2309 8.26052 21.2559 8.31032C21.4058 8.53439 21.7057 8.65888 21.8056 8.93275C21.7307 8.78337 21.6807 8.60909 21.6307 8.4597C21.5807 8.31032 21.4558 8.18583 21.3808 8.01155C21.3058 7.86217 21.2309 7.71278 21.2059 7.5385C21.2059 7.5136 21.2059 7.46381 21.2059 7.43891C21.2059 7.43891 21.1809 7.41402 21.1559 7.38912C21.1559 7.33932 21.1559 7.28953 21.1559 7.23973C21.1559 7.18994 21.1309 7.16504 21.1059 7.14015C21.0809 7.01566 21.1059 6.84138 21.1059 6.71689C21.1059 6.54261 21.0809 6.36833 21.006 6.21895C20.881 5.96997 20.7561 5.721 20.6561 5.47203C20.6061 5.32264 20.5811 5.17326 20.5311 5.02388C20.4812 4.89939 20.4562 4.75001 20.3812 4.65042C20.1813 4.40144 20.0064 4.17737 19.7565 3.97819C19.6815 3.9035 19.5565 3.80391 19.4566 3.77901C19.3316 3.72922 19.0817 3.75411 18.9568 3.77901C18.8068 3.80391 18.6319 3.8786 18.507 3.97819C18.382 4.07778 18.2571 4.22716 18.1071 4.30185C17.8572 4.47613 17.4574 4.45124 17.1825 4.37655C17.0076 4.32675 16.8826 4.40144 16.7077 4.42634C16.6327 4.42634 16.5578 4.42634 16.4828 4.42634C16.3578 4.42634 16.2579 4.47613 16.1329 4.47613C16.033 4.47613 15.958 4.45124 15.858 4.47613C15.7581 4.45124 15.7081 4.47613 15.6331 4.47613C15.4582 4.47613 15.2833 4.52593 15.1083 4.57572C15.0334 4.60062 14.9584 4.57572 14.9084 4.60062C14.8584 4.60062 14.7585 4.65042 14.7085 4.67531C14.6335 4.70021 14.5586 4.72511 14.4836 4.75C14.4086 4.7749 14.3586 4.7749 14.2837 4.7998C14.1337 4.8247 14.0088 4.87449 13.8838 4.92429C13.7339 4.99898 13.559 4.99898 13.384 5.02388C13.2841 5.04877 13.2341 5.04877 13.1341 5.04877C13.0592 5.04877 13.0092 5.09857 12.9342 5.09857C12.8842 5.09857 12.8343 5.07367 12.7843 5.09857C12.7593 5.09857 12.7343 5.14836 12.7343 5.14836C12.6343 5.17326 12.5594 5.14836 12.4594 5.14836C12.3844 5.14836 12.3345 5.19816 12.2595 5.19816C12.2095 5.19816 12.1595 5.17326 12.1096 5.19816C12.0596 5.19816 12.0596 5.22305 12.0096 5.24795C11.9596 5.24795 11.9346 5.24795 11.8846 5.24795C11.8597 5.24795 11.8347 5.27285 11.8097 5.29775C11.7347 5.32264 11.6597 5.34754 11.5848 5.37244C11.2849 5.47203 10.985 5.57162 10.7101 5.6961C10.5602 5.7459 10.4352 5.79569 10.2603 5.79569C10.1853 5.79569 10.1353 5.84549 10.0604 5.87038C9.96042 5.92018 9.93543 5.94508 9.88545 6.01977C9.7605 6.16915 9.68553 6.24384 9.63555 6.46792C9.61056 6.56751 9.58557 6.6422 9.58557 6.76669C9.58557 6.84138 9.58557 6.94097 9.58557 7.01566C9.58557 7.11525 9.63555 7.16504 9.63555 7.26463C9.63555 7.33932 9.63555 7.43891 9.63555 7.5136C9.63555 7.61319 9.61056 7.71278 9.63555 7.81237C9.66054 7.91196 9.68553 7.96176 9.68553 8.08624C9.68553 8.23563 9.63555 8.36011 9.63555 8.53439C9.61056 8.68378 9.61056 8.85806 9.61056 9.05724Z" fill="#053B5F"/>
<path d="M9.56053 9.28132H9.53554C9.56053 9.25642 9.56053 9.23152 9.51055 9.20663C9.51055 9.28132 9.51055 9.33111 9.51055 9.38091C9.48556 9.4556 9.48556 9.50539 9.48556 9.58009C9.46057 9.67967 9.33563 9.85396 9.53554 9.90375C9.68548 9.85396 9.51055 9.65478 9.53554 9.60498C9.53554 9.72947 9.48556 9.80416 9.48556 9.92865C9.48556 10.0282 9.48556 10.1527 9.48556 10.2523C9.48556 10.3021 9.51055 10.3768 9.48556 10.4266C9.48556 10.4764 9.43559 10.4764 9.43559 10.5262C9.4106 10.6009 9.43559 10.7503 9.53554 10.7752C9.53554 10.7005 9.41059 10.4017 9.48556 10.4017C9.51055 10.4764 9.48556 10.5262 9.51055 10.6009C9.53554 10.6507 9.53554 10.6756 9.56053 10.7503C9.56053 10.8001 9.53554 10.8498 9.56053 10.8996C9.56053 10.9494 9.6355 10.9743 9.61051 11.0241C9.58552 10.9992 9.56053 10.9494 9.51055 10.9494C9.48556 11.049 9.51055 11.0988 9.56053 11.1984C9.58552 11.2482 9.6355 11.3727 9.61051 11.4474C9.58552 11.4225 9.56053 11.4225 9.53554 11.3976C9.58552 11.4972 9.53554 11.5968 9.56053 11.6964C9.58552 11.771 9.6355 11.8706 9.71047 11.8955C9.81043 11.7959 9.86041 11.5968 9.66049 11.5719C9.6355 11.6217 9.6355 11.7213 9.66049 11.771C9.66049 11.8208 9.71047 11.8457 9.71047 11.8955C9.68548 11.8706 9.66049 11.8457 9.66049 11.8208C9.76045 11.9702 9.73546 12.1445 9.76045 12.3188C9.78544 12.4682 9.91039 12.5678 10.0104 12.6673C10.0104 12.6176 9.93538 12.4931 9.93538 12.4433C9.91039 12.3935 9.91039 12.269 9.81043 12.2441C9.86041 12.3437 9.8854 12.4433 9.91039 12.5678C9.93538 12.6673 10.0353 12.7669 10.0603 12.8914C10.1103 13.0408 10.1853 13.0657 10.1603 13.2151C10.1353 13.2898 10.0853 13.6383 10.2852 13.5388C10.3602 13.5139 10.4102 13.2649 10.3852 13.2151C10.3602 13.1653 10.1603 13.0408 10.1103 13.0657C10.0104 13.1155 10.1103 13.3645 10.1603 13.4143C10.2103 13.489 10.3602 13.6881 10.4352 13.6881C10.4352 13.6632 10.4352 13.6383 10.4102 13.6632C10.3852 13.7628 10.5351 13.9122 10.5851 13.9869C10.5851 13.7379 10.86 14.0616 10.91 14.1363C10.935 14.1861 11.0099 14.3106 10.885 14.3355C10.835 14.3355 10.7351 14.1861 10.7101 14.1363C10.885 14.0367 11.2848 14.5844 11.4098 14.7089C11.3598 14.8334 11.3848 14.8334 11.4848 14.933C11.5847 15.0077 11.6347 15.0824 11.7596 15.0824C11.8846 15.0824 11.9346 15.1073 12.0095 15.2069C12.0595 15.2816 12.0595 15.4309 12.1345 15.4558C12.0345 15.4309 12.0595 15.5305 11.9346 15.4558C11.8846 15.4309 11.7347 15.2816 11.8596 15.2567C11.9846 15.2318 12.1345 15.4558 12.2095 15.5305C12.3094 15.655 12.4094 15.8044 12.5343 15.904C12.7343 16.0285 12.5843 15.7048 12.4594 15.7048C12.4594 15.7795 12.7592 15.9289 12.8342 15.9538C12.9342 15.9787 13.0341 15.9787 13.1341 16.0036C13.2091 16.0285 13.259 16.1032 13.309 16.153C13.359 16.2028 13.409 16.2526 13.459 16.3024C13.5089 16.3273 13.6089 16.4268 13.6589 16.4517C13.7089 16.4766 13.7588 16.4517 13.8088 16.4517C13.8338 16.4517 13.8588 16.5015 13.9088 16.5015C14.0087 16.5264 14.1087 16.4268 14.2087 16.4517C14.1587 16.4517 14.0837 16.4766 14.0337 16.4517C13.9837 16.4268 13.9588 16.4019 13.8838 16.4019C13.7588 16.377 13.6339 16.4268 13.5089 16.3521C13.7338 16.377 13.9338 16.4268 14.1587 16.4766C14.2087 16.4766 14.2586 16.5015 14.3336 16.5015C14.3836 16.5015 14.4086 16.5264 14.4336 16.5513C14.5335 16.5762 14.6835 16.5762 14.7584 16.5513C14.7584 16.5015 14.5085 16.4766 14.4336 16.4766C14.7334 16.626 14.9833 16.7007 15.2832 16.7007C15.3332 16.7007 15.4082 16.7256 15.4581 16.7007C15.5081 16.6758 15.5331 16.626 15.5831 16.6011C15.708 16.5513 15.883 16.5015 16.0329 16.5015C15.883 16.5015 15.758 16.5513 15.6081 16.5513C15.4582 16.5513 15.3332 16.5513 15.1833 16.5513C15.3332 16.5513 15.4831 16.5513 15.6331 16.5513C15.708 16.5513 15.783 16.6011 15.858 16.6011C15.933 16.626 16.0329 16.6011 16.1079 16.6011C16.2578 16.6011 16.3828 16.6011 16.5077 16.5513C16.6327 16.5015 16.7826 16.4517 16.8826 16.4268C17.0325 16.377 17.1325 16.4268 17.2574 16.4766C17.4074 16.5264 17.4324 16.4268 17.5573 16.3521C17.7822 16.1779 18.0571 16.1032 18.332 16.0783C18.307 15.8791 17.9321 16.0036 17.8322 15.904C18.0071 16.0285 18.182 15.9538 18.382 15.904C18.4819 15.8791 18.5819 15.8542 18.6818 15.8044C18.7318 15.7795 18.8818 15.7048 18.9068 15.655C18.8068 15.655 18.4569 15.8542 18.4319 15.9289C18.6069 15.9787 18.8068 15.8542 18.9317 15.7546C18.9817 15.7297 19.0317 15.6799 19.0817 15.6301C19.1317 15.5305 19.0817 15.4807 18.9817 15.5305C18.9817 15.6052 19.0817 15.5554 19.1317 15.5554C19.2066 15.5305 19.2066 15.5056 19.2566 15.4309C19.3316 15.3314 19.4066 15.2816 19.5315 15.2567C19.6065 15.2318 19.6315 15.2567 19.6814 15.2069C19.7314 15.1571 19.7314 15.1322 19.7564 15.0824C19.8064 15.0077 19.9313 14.9081 20.0063 14.8583C20.1313 14.7836 20.2812 14.7587 20.3812 14.6591C20.4561 14.5844 20.4811 14.46 20.5561 14.3604C20.6311 14.2608 20.706 14.1612 20.756 14.0616C20.806 13.962 20.856 13.7628 20.9559 13.713C21.0059 13.7379 21.0559 13.7379 21.0809 13.7877C21.1059 13.8375 20.9809 13.962 20.9309 13.9869C20.856 14.0367 20.731 14.1861 20.6311 14.1114C20.681 14.0616 20.806 14.0367 20.881 13.9869C20.9809 13.9122 21.0309 13.8624 21.1059 13.7628C21.2058 13.6134 21.3308 13.4392 21.3558 13.2649L21.3808 13.2898C21.3558 13.3147 21.3308 13.4143 21.2808 13.4641C21.2308 13.5139 21.1558 13.6134 21.1059 13.6134C21.0559 13.489 21.1309 13.2898 21.2058 13.1902C21.2558 13.0906 21.2808 12.9412 21.3558 12.8416C21.4057 12.7918 21.4557 12.7918 21.5307 12.742C21.6057 12.6922 21.5807 12.6673 21.6057 12.5927C21.6556 12.4682 21.6806 12.3437 21.7056 12.1943C21.7056 12.1196 21.6806 12.0698 21.7056 11.9951C21.7306 11.9204 21.7556 11.8706 21.7556 11.771C21.7556 11.6466 21.8306 11.5719 21.8556 11.4225C21.8806 11.298 21.9305 11.1735 21.9055 11.049C21.8806 10.9743 21.8556 10.9494 21.8556 10.8747C21.8556 10.8001 21.8556 10.7254 21.8806 10.6507C21.7306 10.576 21.8306 10.4515 21.8056 10.3519C21.8056 10.3021 21.7556 10.3021 21.7556 10.2523C21.7556 10.1776 21.7806 10.1278 21.8056 10.078C21.8056 10.1527 21.8556 10.2025 21.8556 10.2772C21.8556 10.3519 21.8556 10.4515 21.8556 10.5262C21.8556 10.6009 21.8556 10.6756 21.8556 10.7503C21.8306 10.825 21.8306 10.8996 21.8056 10.9743C21.7056 10.8996 21.7556 10.6009 21.7556 10.4764C21.7556 10.3021 21.7556 10.1278 21.7556 9.95354C21.7556 9.77926 21.8556 9.08214 21.6806 9.03234C21.6307 9.15683 21.6806 9.33111 21.6806 9.4556C21.6806 9.53029 21.6307 9.58009 21.6307 9.65478C21.6307 9.67967 21.6307 9.72947 21.6307 9.75437C21.6307 9.82906 21.6057 9.82906 21.5807 9.90375C21.5557 9.97844 21.5807 10.0282 21.5557 10.1029C21.5307 10.1776 21.5057 10.2274 21.4807 10.3021C21.4307 10.4515 21.3558 10.5262 21.2558 10.6507C21.1059 10.8498 20.9309 11.049 20.756 11.2482C20.5811 11.4474 20.3312 11.5719 20.1313 11.7461C20.0063 11.8706 19.9064 11.9702 19.8064 12.0947C19.7564 12.1445 19.7064 12.1943 19.6814 12.2441C19.6315 12.3188 19.6315 12.3935 19.6065 12.4682C19.5815 12.5927 19.5315 12.6922 19.4815 12.7918C19.4315 12.8665 19.3566 12.9163 19.3066 12.9661C19.2316 13.0159 19.2066 13.0906 19.1567 13.1404C19.0317 13.2649 18.8568 13.3396 18.7068 13.4392C18.5319 13.5637 18.332 13.6632 18.1321 13.7628C17.9821 13.8375 17.8322 13.8873 17.6573 13.9371C17.6073 13.962 17.5323 13.9869 17.4823 13.9869C17.4074 14.0118 17.3574 14.0118 17.2824 14.0367C17.1575 14.0616 17.0325 14.1363 16.9076 14.1612C16.7576 14.211 16.6077 14.211 16.4827 14.2608C16.1329 14.3853 15.783 14.5097 15.4332 14.6342C15.1833 14.7089 14.9334 14.7587 14.7085 14.8085C14.5585 14.8334 14.2836 14.8583 14.1087 14.8334C13.8088 14.7587 13.5089 14.7089 13.234 14.5595C12.9592 14.4351 12.6843 14.1861 12.4594 13.9869C12.2594 13.8126 12.0595 13.6383 11.8846 13.4392C11.6847 13.24 11.4598 13.1155 11.2848 12.9163C11.1099 12.7171 10.935 12.5429 10.7351 12.3437C10.5351 12.1445 10.3852 11.9204 10.2603 11.6715C10.1853 11.547 10.1603 11.4474 10.1353 11.298C10.0853 11.1486 10.0853 10.9743 10.0603 10.8249C10.0603 10.8249 10.0353 10.8001 10.0104 10.7752C10.0104 10.7254 10.0104 10.6756 10.0104 10.6258C10.0104 10.5511 9.98536 10.4515 9.96037 10.3768C9.93538 10.2523 9.86041 10.1029 9.81043 10.0033C9.73546 9.87885 9.68548 9.75437 9.6355 9.60498C9.53554 9.4307 9.53554 9.33111 9.56053 9.28132Z" fill="#92DDF6"/>
</g>
<defs>
<clipPath id="clip0">
<rect width="48" height="48" fill="white"/>
</clipPath>
</defs>
</svg>
