<svg width="15" height="15" viewBox="0 0 15 15" fill="none" xmlns="http://www.w3.org/2000/svg">
<g clip-path="url(#clip0_2_17405)">
<path d="M7.02344 0.707031C10.8832 0.707031 14.0234 3.84727 14.0234 7.70707C14.0234 11.5669 10.8832 14.707 7.02344 14.707C3.16364 14.707 0.0234375 11.5669 0.0234375 7.70707C0.0234375 3.84727 3.16364 0.707031 7.02344 0.707031ZM7.02344 13.4343C10.1815 13.4343 12.7507 10.8651 12.7507 7.70707C12.7507 4.54906 10.1815 1.97976 7.02344 1.97976C3.86538 1.97976 1.29616 4.54906 1.29616 7.70707C1.29616 10.8651 3.86542 13.4343 7.02344 13.4343Z" fill="#92DDF6"/>
<path d="M7.02278 3.67578C7.49055 3.67578 7.87109 4.05658 7.87109 4.52465C7.87109 4.99229 7.49055 5.37275 7.02278 5.37275C6.55501 5.37275 6.17446 4.99229 6.17446 4.52465C6.17446 4.05658 6.55501 3.67578 7.02278 3.67578Z" fill="#92DDF6"/>
<path d="M7.02379 6.64453C7.37524 6.64453 7.66016 6.92945 7.66016 7.28089V11.0991C7.66016 11.4505 7.37524 11.7354 7.02379 11.7354C6.67235 11.7354 6.38743 11.4505 6.38743 11.0991V7.28089C6.38743 6.92945 6.67235 6.64453 7.02379 6.64453Z" fill="#92DDF6"/>
</g>
<defs>
<clipPath id="clip0_2_17405">
<rect width="14" height="14" fill="white" transform="matrix(-1 0 0 1 14.0234 0.707031)"/>
</clipPath>
</defs>
</svg>
