<svg width="24" height="23" viewBox="0 0 24 23" fill="none" xmlns="http://www.w3.org/2000/svg">
<g clip-path="url(#clip0_213_14807)">
<path d="M18.5364 3.67322C18.2576 3.1675 17.7267 2.85252 17.1493 2.85021C17.0912 2.85021 17.0339 2.85339 16.9774 2.85895C16.6387 2.89845 16.3124 2.71765 16.1663 2.40946C15.8393 1.7104 15.1386 1.26245 14.3668 1.25909C14.3692 1.25909 14.2598 1.26625 14.1412 1.27857C13.8273 1.31028 13.5239 1.15448 13.3668 0.880787C13.0855 0.377915 12.5543 0.0664062 11.9781 0.0664062C11.4019 0.0664062 10.8708 0.377915 10.5895 0.880787C10.435 1.15707 10.13 1.31387 9.81539 1.27857C9.68849 1.26585 9.57276 1.25909 9.56918 1.25869C8.80402 1.26819 8.11216 1.71581 7.78991 2.40986C7.64199 2.7171 7.31609 2.89735 6.97725 2.85935C6.92068 2.85343 6.86386 2.8504 6.807 2.85021C6.22963 2.85244 5.6988 3.16728 5.41992 3.67282C6.26839 3.96638 8.21791 4.44134 11.9782 4.44134C15.7384 4.44134 17.6879 3.96638 18.5364 3.67322ZM14.3839 2.05465C14.827 2.07632 15.2215 2.34197 15.4082 2.74439C15.471 2.87353 15.4592 3.02645 15.3775 3.14451C15.2958 3.26258 15.1569 3.32747 15.0139 3.31428C14.871 3.30109 14.7462 3.21193 14.6875 3.0809C14.6242 2.94741 14.4932 2.85902 14.3458 2.85018C14.1261 2.83918 13.9569 2.6522 13.9679 2.43252C13.9788 2.21284 14.1658 2.04365 14.3855 2.05462L14.3839 2.05465ZM9.61051 2.85021C9.46288 2.8592 9.33189 2.94796 9.26882 3.08174C9.17388 3.27723 8.93962 3.36032 8.74274 3.26839C8.54582 3.17645 8.45915 2.9435 8.54805 2.7452C8.73452 2.34245 9.12909 2.07647 9.57236 2.05465C9.67847 2.04771 9.78283 2.08421 9.86147 2.1558C9.9401 2.22738 9.98622 2.32787 9.98925 2.43416C9.99422 2.53955 9.9571 2.64263 9.8861 2.72064C9.81503 2.79866 9.71589 2.84528 9.61051 2.85021ZM11.523 3.05546C11.4063 3.23806 11.1657 3.29524 10.9793 3.18474C10.7946 3.07604 10.7313 2.83936 10.8369 2.6529C11.0959 2.27799 11.5225 2.05421 11.9781 2.05421C12.4338 2.05421 12.8604 2.27803 13.1194 2.6529C13.2302 2.84261 13.1662 3.08623 12.9766 3.19706C12.7868 3.30789 12.5432 3.24394 12.4324 3.05426C12.3173 2.92388 12.1517 2.84923 11.9777 2.84923C11.8037 2.84923 11.6382 2.92388 11.523 3.05426V3.05546Z" fill="#7B7B7B"/>
<path d="M21.1344 20.0849L20.8193 19.7882C20.4645 19.454 20.245 19.0009 20.2028 18.5153L19.1777 6.91955C19.1429 6.52933 19.2535 6.14003 19.4884 5.82644L20.2004 4.87416C20.3135 4.73219 20.3513 4.54441 20.3018 4.36975C20.2609 4.23546 20.1593 4.12822 20.0274 4.08016C19.8432 4.01783 19.6411 4.03844 19.4733 4.13666C19.2799 4.24924 17.4179 5.23693 11.9778 5.23693C6.53774 5.23693 4.67574 4.24964 4.48124 4.13666C4.31362 4.03829 4.11145 4.01783 3.92754 4.08057C3.79577 4.12847 3.69423 4.23561 3.65348 4.36975C3.6036 4.54434 3.64124 4.73223 3.75452 4.87416L4.46655 5.82885C4.70147 6.14237 4.81211 6.53175 4.77722 6.92196L3.75284 18.5161C3.7106 19.0018 3.49095 19.4549 3.13588 19.789L2.81327 20.0941C2.31694 20.5951 2.30159 21.3975 2.77841 21.9171C3.25523 22.4367 4.05609 22.4901 4.59769 22.0384L5.01217 21.7202C4.87335 21.6446 4.73691 21.5679 4.60803 21.4875C4.48723 21.4122 4.41579 21.2781 4.42062 21.1359C4.42544 20.9936 4.50583 20.8647 4.63145 20.7978C4.75708 20.7308 4.90887 20.736 5.02967 20.8113C6.94579 22.0094 9.71875 22.3416 11.9778 22.3416C14.2726 22.3416 16.9795 22.0114 18.9278 20.8097C19.1137 20.7058 19.3485 20.7666 19.4604 20.9479C19.5724 21.1291 19.5217 21.3663 19.3455 21.4859C19.2333 21.5552 19.1227 21.618 19.0121 21.6797L19.3856 22.0631C19.9366 22.498 20.7313 22.4269 21.1964 21.9011C21.6614 21.3753 21.6349 20.5779 21.1359 20.0842L21.1344 20.0849ZM16.4329 7.61525C14.9655 7.90129 13.4727 8.03737 11.9778 8.0214C10.4828 8.03737 8.99005 7.90129 7.52258 7.61525C7.30751 7.57041 7.16949 7.35976 7.21429 7.14468C7.25909 6.9296 7.46978 6.79159 7.68486 6.83639C9.09891 7.11143 10.5373 7.24191 11.9777 7.2258C13.4184 7.24195 14.8571 7.11146 16.2714 6.83639C16.4865 6.79159 16.6972 6.9296 16.742 7.14468C16.7868 7.35976 16.6487 7.57045 16.4337 7.61525H16.4329Z" fill="#C4C4C4"/>
<path d="M13.9244 12.7033C13.8637 11.7257 13.0807 10.9427 12.1031 10.8821C10.9574 10.8101 10.0312 11.7249 10.0312 12.8267C10.0312 13.1159 10.2657 13.3503 10.5549 13.3503C10.8441 13.3503 11.0785 13.1159 11.0785 12.8267C11.0785 12.3068 11.5151 11.8946 12.0382 11.9273C12.4822 11.9548 12.8516 12.3242 12.8792 12.7683C12.9038 13.1648 12.6722 13.5265 12.3029 13.6684C11.7885 13.8661 11.4561 14.3467 11.4561 14.8926V15.409C11.4561 15.6982 11.6905 15.9326 11.9797 15.9326C12.2689 15.9326 12.5033 15.6982 12.5033 15.409V14.8926C12.5033 14.7837 12.5721 14.6869 12.6786 14.646C13.4769 14.3392 13.9775 13.5585 13.9244 12.7033Z" fill="#838383"/>
<path d="M11.9816 17.7376C12.2708 17.7376 12.5052 17.5031 12.5052 17.2139C12.5052 16.9248 12.2708 16.6903 11.9816 16.6903C11.6924 16.6903 11.458 16.9248 11.458 17.2139C11.458 17.5031 11.6924 17.7376 11.9816 17.7376Z" fill="#838383"/>
</g>
<defs>
<clipPath id="clip0_213_14807">
<rect width="22.2812" height="22.2812" fill="white" transform="translate(0.838867 0.0664062)"/>
</clipPath>
</defs>
</svg>
